<?xml version="1.0" encoding="utf-8"?>
<!-- Generator: Adobe Illustrator 16.0.0, SVG Export Plug-In . SVG Version: 6.00 Build 0)  -->
<!DOCTYPE svg PUBLIC "-//W3C//DTD SVG 1.1//EN" "http://www.w3.org/Graphics/SVG/1.1/DTD/svg11.dtd">
<svg version="1.1" id="Layer_1" xmlns="http://www.w3.org/2000/svg" xmlns:xlink="http://www.w3.org/1999/xlink" x="0px" y="0px"
	 width="362px" height="112px" viewBox="0 0 362 112" enable-background="new 0 0 362 112" xml:space="preserve">
<g>
	<path fill="#FFFFFF" d="M80.042,24.844c-0.593,1.054,0.11,3.966,2.297,4.238c2.072,0.258,3.515-1.679,4.246-2.913
		c2.035-3.441,2.035-3.441,2.82-5.511c2.203-5.809,4.016-9.58,7.442-9.312c0.474,3.515-2.289,6.729-3.513,9.935
		c-1.427,3.739-2.324,7.402-5.361,10.172c-2.699,2.462-6.096,3.545-9.262,1.075c-2.297-1.792-4.355-9.014,0.621-8.296
		c0.381,0.981,0.158,1.14,0.049,1.273"/>
	<path fill="#FFFFFF" d="M85.858,3.466c-2.943-0.416-3.687,2.572-1.999,4.512c1.369,1.575,4.881,2.049,6.845,1.883
		c4.402-0.373,9.558-3.459,13.882-3.323c0.298,2.633-3.015,7.033-4.106,9.452c-1.443,3.196-5.508,7.197-3.579,9.933
		c2.583,3.663,6.187-4.092,8.366-8.885c2.595-5.705,6.946-13.123,6.388-15.96c-0.442-2.24-5.884,0.443-8.174,0.833
		c-2.522,0.43-4.56,2.132-6.738,3.517c-1.892,1.204-4.483,2.957-6.682,3.088c-5.398,0.323-2.504-3.397-4.54-4.726"/>
	<path fill="#FFFFFF" d="M107.153,18.285c0.556-3.516,4.533-9.068,5.622-8.987c3.205,0.239-1.784,8.449-1.612,10.877
		c5.433-2.784,6.329-11.765,12.491-13.185c12.395-2.855,4.678,12.15-1.18,7.939c1.258-1.273,2.2-2.452,2.131-4.243
		c-2.281,0.32-2.902,4.344-2.537,6.5c3.941,1.592,9.602-2.254,10.738-5.853c5.693,0-2.988,6.532-4.83,7.91
		c-3.934,2.944-8.791,4.026-11.252-0.726c-1.49,2.742-3.46,6.37-7.602,5.996c-4.561-0.413-2.816-4.316-1.431-7.475"/>
	<path fill="#FFFFFF" d="M110.775,66.482c0.025-0.412,0.617-0.476,0.031-0.677c-4.724-0.421-7.773,5.463-12.267,2.339
		c-4.874-3.389,4.452-5.472,7.272-6.369c4.241-1.354,9.271-1.344,12.675,2.503c3.054,3.452,0.177,7.632-2.754,10.135
		c-6.936,5.923-21.574,5.128-25.694-3.056c-3.453-6.858,0.057-18.379,3.966-25.942c3.761-7.276,11.577-14.064,19.077-17.257
		c4.496-1.914,9.576-3.389,14.548-3.645c5.125-0.263,8.043,2.759,11.566,5.692c3.349,2.788,13.88,5.982,13.887-3.701
		c0.005-7.201-12.296,5.573-14.251-0.337c3.394-4.064,19.527-7.222,18.193,1.866c4.919-1.868,5.524,8.154,4.422,12.833
		c-1.061,4.507-2.177,7.526-4.847,11.589c-6.609,10.061-14.576,14.388-21.884,14.688c-12.418,0.507-15.311-10.19-12.779-19.902
		c0.566-2.17,4.861-11.054,8.227-11.054c3.775,0,0.476,3.101,0.22,4.679c-0.441,2.709-1.326,5.961-1.094,8.424
		c0.414,4.403-1.425,10.38,4.932,10.929c5.415,0.469,7.398,0.469,11.995-4.23c5.762-5.889,9.51-15.471,9.501-23.593
		c-1.9,10.42-17.074,7.182-22.893,2.122c-3.649-3.173-4.203-6.37-11.144-6.039c-4.07,0.194-8.426,3.616-11.484,6.361
		c-6.594,5.919-10.538,12.778-13.704,20.994c-1.653,4.287-3.33,9.354,0.155,13.209c3.335,3.69,10.146,4.004,13.688,1.141
		c1.264-1.023,0.785-2.538,1.1-4.265c0.001,0.281,0.054,0.618,0.001,0.893"/>
	<path fill="#FFFFFF" d="M164.64,35.088c3.369,0.643,5.134,4.38,9.236,2.313c2.676-1.348,6.249-5.949,6.576-8.88
		c-5.529,2.511-10.897,12.874-12.168,18.472c-1.015,4.47,0.402,9.025,4.03,3.708c2.1-3.077,3.446-6.96,7.824-6.294
		c-2.312,3.736-2.718,7.115-6.494,10.26c-3.206,2.671-9.113,4.093-12.069,0.009c-2.76-3.814,0.079-10.58,1.653-14.302
		c2.088-4.941,4.976-7.692,8.931-11.316c2.647-2.426,6.17-5.735,9.922-4.141c5.075,2.157,1.735,6.812-0.506,9.519
		c-2.006,2.424-4.957,6.779-8.672,6.269c-1.846-0.254-7.699-4.042-8.594-5.617"/>
	<path fill="#FFFFFF" d="M186.12,49.628c0.129-1.847,4.423-3.444,6.553-2.587c2.808,6.526-7.207,10.899-11.427,6.544
		c-5.919-6.111-1.175-11.392,4.08-14.895c-1.098,0.715-2.204,1.278-3.194,2.223c2.239-3.15,9.692-7.12,13.176-3.877
		c0.363-3.649,4.115-8.885,6.263-11.87c1.16-1.614,2.588-3.37,4.708-3.635c3.895-0.487,3.292,1.319,2.396,3.652
		c-1.678,4.37-3.522,8.573-5.049,12.886c-0.675,1.908-5.696,11.482-2.031,11.171c4.62-7.354,8.434-14.918,13.69-22.011
		c2.894-3.905,5.795-8.945,10.812-9.996c5.865-1.227,8.146,3.554,4.894,7.86c-3.712,4.914-6.917,7.995-12.772,9.423
		c-0.114,0.13-0.108,0.136,0.018,0.017c3.124-3.355,7.255-8.302,7.888-12.878c-5.809,6.291-12.663,17.272-12.186,25.934
		c4.305,2.961,9.617-3.373,8.532-7.874c-0.508-2.109-3.3-2.96-1.567-5.205c1.55-2.009,4.874-1.116,6.286,0.488
		c6.572,7.471-8.502,18.591-15.291,17.604c-1.904-0.277-3.544-1.084-4.223-2.949c-0.984,4.02-9.677,4.304-12.318,2.032
		c-3.49-2.999-1.304-9.198-0.7-13.25c-2.874,1.284-12.606,7.195-8.866,11.523"/>
	<path fill="#FFFFFF" d="M247.544,20.599c-0.912,4.62-2.928,6.035-6.237,8.541l0.661-0.661c-0.28,0.093-0.309,0.57-0.94,0.28
		C241.061,26.532,245.488,20.824,247.544,20.599 M294.429,29.388c-3.253,2.949-4.634,7.069-9.096,9.087
		c-5.315,2.404-9.113-2.986-7.674-8.013c0.564-1.976,3.481-5.381,5.526-4.213c2.533,1.447-0.771,4.194-2.497,4.93
		c-1.562,2.958,2.151,3.425,4.238,2.586c1.901-0.764,3.338-2.939,4.37-4.552c2.983-4.66-1.113-8.381-6.425-8.261
		c-9.296,0.209-11.021,14.745-17.176,19.689c-0.786,0.631-1.938,1.04-2.841,1.355c0.162-2.876,1.724-6.608,3.317-9.212
		c1.658-2.707,4.52-6.327-0.742-6.618c-8.011-0.444-8.549,10.46-8.594,15.91c-0.474-1.132-2.797-1.417-4.234-0.42
		c0.85-4.033,4.769-9.15,6.252-13.176c-4.699-5.281-9.724,3.836-12.012,6.874c-2.595,3.447-5.01,8.791-9.782,9.266
		c-0.206-4.459,0.727-10.676,3.082-15.099c-0.18,0.503-0.331,1.017-0.445,1.544c4.356,0.309,8.281-3.141,10.781-6.616
		c2.659-3.697,4.066-10.324-2.579-9.536c-7.938,0.941-15.52,11.613-18.239,18.449c-1.705,4.284-2.943,10.152,1.494,13.2
		c4.738,3.256,9.738,0.762,12.466-2.931c-0.038,7.238,10.262,1.536,12.813,0.09c1.194,3.722,5.851,2.141,8.337,1.024
		c3.241-1.457,4.506-3.885,7.187-5.64c5.187,9.667,15.546,1.84,21.151-3.768c1.254-1.255,3.263-2.716,3.965-4.296
		C298.405,28.042,296.597,27.422,294.429,29.388"/>
	<path fill="#FFFFFF" d="M87.863,98.867c-0.385-3.854-0.771-5.563,1.514-10.162c1.347-2.713,6.516-10.1,1.257-11.666
		c-8.117-2.416-13.67,18.635-12.501,23.737c1.909,8.335,12.68,13.78,22.076,9.575c4.618-2.066,7.601-5.62,9.434-8.84
		c1.628-2.861-0.494-11.732-7.708-10.493c-0.793,0.136-1.516,0.843-2.106,1.231c3.009,3.715,3.103,9.193-1.189,11.997
		c-2.965,1.936-8.574,2.476-10.01-2.57C88.291,100.484,87.906,99.292,87.863,98.867"/>
	<path fill="#FFFFFF" d="M131.594,75.404c-4.909-4.111-12.837,13.279-9.856,14.483c5.02,2.027,5.765-7.886,6.62-10.354
		c0.33-0.951,0.268-0.764,0.546-1.433c0.75-1.801,2.295-3.398,4.285-2.97c1.476,2.679,2.095,8.04,6.252,3.896
		c2.25-2.24,2.75-6.278,4.438-8.854c1.287-0.252,2.696-0.045,3.858,0.321c-0.175,0.776-0.099,1.448-0.646,2.131
		c1.694-3.226,7.191-6.19,9.7-2.592c2.621,3.758-0.78,9.393-2.395,12.987c-0.683,1.521-1.444,4.012-2.968,4.872
		c-1.846,1.044-5,0.795-5.632-1.247c-1.245-4.026,4.835-8.513,4.964-12.465c-0.005,0.403-0.065,0.831-0.103,1.222
		c-1.15,0.411-2.328,0.488-3.464,0.033c-0.98,4.5-2.443,9.76-5.934,13.269c-1.679,1.688-4.873,3.414-6.037,0.248
		c-0.637-1.732,1.483-5.563,2.023-7.137c-1.232,1.513-2.811,0.786-3.263-0.77c-0.409,7.208-13.348,19.692-18.538,10.168
		c-1.284-2.354,0.286-9.65,3.344-13.434c2.147-2.655,7.477-8.284,11.176-5.004c0.865,0.768,1.082,1.002,1.688,1.874
		C132.167,75.393,131.594,75.404,131.594,75.404"/>
	<path fill="#FFFFFF" d="M159.683,72.099c0.376-0.814,1.564-1.227,2.231-0.517c2.022,2.151-2.759,7.323-2.892,10.432
		c-0.241,5.617,1.432,6.499,7.881,5.007c-0.927,1.963-4.643,12.483,1.372,11.53c3.911-0.62,5.767-8.32,6.554-10.81
		c1.271-4.018,2.321-8.639,4.021-12.888c0.991-2.479,2.6-4.195,2.643-6.465c0.054-2.858-2.425-3.181-4.708-1.328
		c-3.495,2.836-6.715,17.568-11.102,16.226c0.942-3.435,5.229-11.086,3.591-14.83c-2.057-4.703-12.171,2.093-10.252,3.973
		C159.154,72.56,159.606,72.268,159.683,72.099"/>
	<path fill="#FFFFFF" d="M186.45,68.464c1.268,1.646-1.73,8.129-3.056,10.162c-1.471,2.256-2.376,1.809-4.463,3.139
		c-1.405,0.894-3.722,3.316-1.954,5.206c2.423,2.588,8.51-2.027,10.74-3.25c3.457-1.896,6.679-3.615,9.564-6.293
		c1.288,3.706,5.71,4.902,8.887,3.76c0.747-0.27,3.8-1.433,4.008-3.204c0.27-2.295-3.353-1.785-4.477-0.979
		c-2.342-7.164,5.496-12.274,11.103-12.557c-1.381-8.542-11.571-1.272-14.49,2.198c-3.468,4.122-6.859,7.704-10.59,11.615
		c0.346-4.046,4.15-9.055,0.566-12.882c-3.01-3.215-13.097,0.521-10.024,4.352c1.087,1.354,2.99,0.687,3.856-0.938"/>
	<path fill="#FFFFFF" d="M224.454,74.083c-0.669,1.311-1.785,3.862-0.403,4.681c5.305,3.141,7.515-4.378,8.775-7.435
		c1.721-4.181,6.423-11.267,4.579-14.375c-2.309-3.896-6.257,5.696-9.565,8.948c-3.081,3.029-5.976,4.931-9.607,7.478
		c-0.57-4.53,4.569-7.779,4.458-12.931c-5.564-1.069-10.863,8.952-11.455,12.973c-0.529,3.601,1.448,6.398,4.956,6.609
		c3.483,0.21,5.243-2.464,7.271-5.287"/>
	<path fill="#FFFFFF" d="M240.315,62.186c-1.708,2.423-8.402,11.2-2.038,14.43c3.595,1.823,10.905-1.377,12.604-7.366
		c3.137,4.834,7.034,5.521,11.866,2.579c-1.41,3.861-8.293,11.678-12.477,12.116c0.182-1.884,5.58-5.839,7.508-5.946
		c-0.04-4.488-12.089,2.513-12.504,5.337c-0.468,3.192,2.654,4.582,4.9,4.956c3.077,0.514,5.427-0.505,8.151-2.037
		c3.734-2.101,6.979-4.875,9.179-8.775c0.919-1.628,1.219-5.088,2.626-6.297c1.783-1.532,4.496-0.355,6.454-1.809
		c2.021-1.499,7.642-9.33,4.055-10.5c-5.145-1.679-5.124,9.287-8.982,8.889c0.114-4.08,2.324-8.856,3.633-12.295
		c1.046-2.754-1.047-6.114-3.855-1.662c-4.027,6.384-3.746,15.045-12.996,16.252c0.638-4.008,2.618-8.148,4.845-11.396
		c0.86-1.255,3.314-4.778,0.835-5.734c-1.496-0.577-4.792,1.322-5.792,2.209c-3.299,2.925-3.9,5.531-6.866,8.941
		c-2.307,2.652-5.169,5.789-8.122,7.578c0.071-5.071,6.727-12.003,3.563-15.331c-1.899-2-10.858,1.728-8.718,5.27
		c0.533,0.884,1.954,1.145,2.794,0.923L240.315,62.186z"/>
	<path fill="#B54752" d="M4.415,45.587c0.23,0.058,0.46,0.203,0.69,0.436c0.157,0.319,0.099,0.608-0.172,0.866
		c-0.029,0.262,0.028,0.523,0.172,0.784c-0.188,0.275-0.303,0.594-0.345,0.959c-0.246-0.162-0.534-0.278-0.863-0.349
		c-0.287-1.652-1.091-1.971-2.411-0.958c-0.502,0.697-0.732,1.538-0.69,2.522l0.172-0.174c-0.086,0.681,0.173,1.174,0.777,1.481
		l0.086,0.518c0.416,0.087,0.932,0.116,1.549,0.087l0.776-1.215c-0.016-0.174,0.042-0.349,0.173-0.523L4.5,49.848
		c0.818,0.19,1.048,0.771,0.691,1.743c-0.419,0.216-0.793,0.563-1.122,1.04c-0.317,0.104-0.69,0.162-1.122,0.175
		c-0.086,0-0.172,0.029-0.259,0.087c-0.3-0.058-0.672-0.087-1.117-0.087c-0.102-0.262-0.274-0.494-0.517-0.698l-0.087-0.174
		c-0.99-1.129-1.22-2.491-0.69-4.085c0.189-1.682,1.453-2.348,3.792-2L4.415,45.587z"/>
	<path fill="#B54752" d="M10.911,47.48h0.165c0.368,0.123,0.803,0.34,1.307,0.654l0.159,0.082c-0.025,0.229,0.029,0.447,0.165,0.653
		c-0.165,0.326-0.41,0.625-0.736,0.896c-0.436-0.094-0.681-0.392-0.736-0.896c-1.249,0.191-1.683,0.98-1.302,2.367
		c0.407,0.107,0.788,0.107,1.143,0c-0.055,0.217-0.055,0.462,0,0.736c-0.042,0.216-0.125,0.46-0.247,0.731
		c-0.3-0.039-0.626,0.016-0.978,0.165H9.604c-0.571-0.245-1.225-0.328-1.96-0.247l-0.325-0.324c0.055-0.217,0.082-0.462,0.082-0.736
		l0.325-0.165c0.329-0.013,0.657-0.066,0.982-0.16v-1.878c0.013-0.055-0.014-0.11-0.082-0.164v-0.325
		c-0.613,0.013-0.994-0.287-1.142-0.9c0.61-0.491,1.399-0.491,2.367,0C10.151,47.875,10.504,47.712,10.911,47.48"/>
	<path fill="#B54752" d="M17.417,50.642c-0.081,0.113-0.195,0.226-0.344,0.339C17.545,51.147,17.659,51.035,17.417,50.642
		 M16.483,50.98c-0.207,0.09-0.376,0.259-0.508,0.508C17.052,51.552,17.222,51.383,16.483,50.98 M16.144,47.5l1.525,0.082
		l0.256,0.087l0.596,0.083h0.252c0.567,0.952,0.68,2.028,0.338,3.229l0.257,0.421c0.678-0.055,1.016,0.285,1.016,1.021l-0.338,0.426
		c-0.352-0.158-0.747-0.244-1.186-0.257l-0.17-0.338h-0.513c-0.975,0.865-2.106,0.835-3.393-0.088c0.09-0.506,0.09-1.071,0-1.694
		c0.213-0.213,0.495-0.44,0.847-0.682V49.45C14.695,48.851,14.866,48.199,16.144,47.5"/>
	<path fill="#B54752" d="M25.152,45.539h0.257h0.174c0.629,0.058,1.145,0.403,1.549,1.036c0.013,0.271-0.016,0.615-0.087,1.031
		c-0.92-0.129-1.322,0.216-1.206,1.036c-1.307-0.029-1.679,0.631-1.118,1.98l-0.087,0.774c0.675,0,1.134,0.288,1.38,0.862
		l-0.262,0.348l-1.892,0.17l-0.606,0.087h-0.343l-0.605-0.174c-0.084-0.229-0.141-0.517-0.17-0.862
		c0.429-0.242,0.946-0.356,1.549-0.344c-0.013-0.474,0.016-1.048,0.087-1.723v-0.256l-0.174-0.518
		c-0.891-0.029-1.407-0.259-1.549-0.688c0.129-0.129,0.244-0.302,0.344-0.518c0.861,0,1.407-0.689,1.636-2.067
		C24.346,45.713,24.721,45.655,25.152,45.539"/>
	<path fill="#B54752" d="M30.976,45.578c0.452,0.045,0.628,0.279,0.528,0.702c0.438,0.248,0.497,0.657,0.174,1.225l0.174,0.266
		c0.41-0.061,0.907-0.179,1.491-0.354c0.161,0.307,0.424,0.57,0.789,0.79c-0.233,0.629-0.7,0.863-1.404,0.701
		c-0.277,0.191-0.598,0.249-0.963,0.175c-0.074,0.351-0.074,0.761,0,1.229c-0.074,0.291-0.074,0.641,0,1.051v0.348
		c0.729-0.013,1.226-0.392,1.491-1.137c0.845,0.087,1.079,0.495,0.702,1.224c-0.526,0.965-1.403,1.286-2.629,0.964l-0.527-0.436
		l-0.175-0.528v-0.61l-0.266-0.701c0.058-0.178,0.087-0.412,0.087-0.702l0.267-0.088l-0.175-0.789
		c-0.732,0.133-1.171-0.13-1.316-0.789c0.293-0.422,0.673-0.569,1.137-0.44C30.261,46.891,30.466,46.191,30.976,45.578"/>
	<path fill="#B54752" d="M39.854,50.603c-0.335,0.206-0.728,0.289-1.176,0.247c0,0.406,0.197,0.631,0.59,0.673
		C40.385,51.089,40.58,50.783,39.854,50.603 M38.847,48.84c-0.545,0.365-0.629,0.616-0.251,0.755c0.28,0.42,0.7,0.308,1.258-0.334
		C39.657,48.967,39.322,48.828,38.847,48.84 M38.765,47.5c1.104,0,1.885,0.531,2.343,1.593c0.461,0.545,0.407,1.076-0.165,1.592
		c0.517,0.768,0.46,1.272-0.169,1.511v0.246c-0.794,0.407-1.688,0.52-2.682,0.339v-0.251c-0.642-0.475-1.033-1.174-1.171-2.096
		l-0.252-0.335c0.239-1.313,0.881-2.096,1.927-2.347C38.608,47.681,38.665,47.596,38.765,47.5"/>
	<path fill="#B54752" d="M46.011,50.559h0.247C46.135,50.82,46.053,50.82,46.011,50.559 M46.669,49.654
		c-0.274,0.232-0.631,0.314-1.07,0.246l-0.082,0.247c-0.177,0.11-0.369,0.275-0.576,0.494l0.576,0.247
		c-0.19,0.219-0.218,0.466-0.082,0.741c1.11,0.138,1.467-0.218,1.07-1.07l0.082-0.247C47.313,50.393,47.34,50.173,46.669,49.654
		 M46.34,45.539c0.397,0.097,0.891,0.152,1.481,0.165c0.055,0.274,0.192,0.521,0.412,0.74L48.15,48.09v0.658l0.083,0.165
		c-0.068,0.329-0.095,0.713-0.083,1.152c-0.151,0.245-0.206,0.52-0.164,0.823l0.164,0.247l-0.164,0.411
		c0.261-0.013,0.481,0.07,0.658,0.247c0.249,0.191,0.304,0.437,0.165,0.741l-0.412,0.164c-0.726-0.287-1.466-0.232-2.222,0.165
		l-1.234-0.411h-0.247c-0.19-0.426-0.355-0.948-0.494-1.564l-0.164-0.082c0-0.081-0.028-0.163-0.083-0.247l0.083-0.247l-0.165-0.247
		l0.165-0.576c0.122-0.274,0.205-0.603,0.247-0.987c0.177-0.11,0.314-0.275,0.411-0.494c0.207-0.029,0.399-0.139,0.576-0.329
		c0.249,0.232,0.55,0.232,0.905,0c0.233,0.206,0.562,0.343,0.988,0.411c0.068-0.632-0.207-0.934-0.823-0.905
		c-0.042-0.11-0.124-0.192-0.247-0.247C45.574,46.431,45.656,45.965,46.34,45.539"/>
	<path fill="#B54752" d="M20.5,57.436c0.236,0.17,0.552,0.276,0.949,0.315l-0.16,0.479c0.423,0.539,0.29,0.935-0.397,1.187
		c0.026,0.21,0.132,0.368,0.32,0.474l0.077,1.583l-0.077,0.237l0.077,0.16v0.314l-0.077,0.237v0.319l0.077,0.237l0.315-0.083
		c0.384,0.359,0.781,0.412,1.19,0.16c0.159,0.171,0.289,0.383,0.393,0.634l0.159,0.078l-0.314,0.794
		c-0.504,0.094-1.11,0.119-1.82,0.077l-0.238,0.16c-0.606-0.158-1.371-0.237-2.294-0.237h-0.237
		c-0.146-0.304-0.173-0.673-0.083-1.108c0.146-0.065,0.278-0.169,0.397-0.315c0.62,0.317,1.094,0.185,1.424-0.396
		c-0.146-0.371-0.197-0.793-0.155-1.269l-0.32-0.552c-0.41,0.026-0.858-0.027-1.346-0.159c-0.103-0.833,0.346-1.307,1.346-1.424
		C19.472,58.612,19.736,57.977,20.5,57.436"/>
	<path fill="#B54752" d="M26.585,59.376c0.371,0.136,0.81,0.355,1.317,0.658c0.41-0.084,0.874-0.248,1.394-0.493l0.489,0.082
		c0.603,0.723,0.823,1.597,0.658,2.624c-0.055,0.287-0.055,0.614,0,0.981l0.658,0.083c0.068,0.316,0.068,0.673,0,1.069v0.242
		c-0.806,0.207-1.628,0.207-2.464,0c-0.109-0.574-0.027-1.174,0.247-1.8c0.081,0.231,0.246,0.368,0.494,0.405
		c-0.029-0.163,0.026-0.326,0.165-0.488c-0.097-0.342-0.317-0.589-0.659-0.74l-0.164-0.489l-0.083-0.165l-0.082-0.247
		c-0.164,0.095-0.382,0.149-0.653,0.165l0.324,0.247c-0.9,0.601-0.955,1.311-0.165,2.13c-0.08,0.232-0.134,0.506-0.159,0.818
		c-0.794,0.316-1.561,0.153-2.3-0.489l0.165-0.329c0.794-0.288,1.039-0.807,0.736-1.559c0.439-0.765,0.221-1.23-0.654-1.394v-0.654
		C25.959,59.718,26.205,59.5,26.585,59.376"/>
	<path fill="#B54752" d="M5.032,69.38c0.849,0.236,1.823,0.263,2.924,0.082l0.164,0.083h0.252l0.334,0.169
		c0,0.252-0.055,0.529-0.164,0.833c-0.504-0.11-1.061-0.054-1.671,0.169c-0.167,0.652-0.14,1.375,0.083,2.169
		c-0.181,0.652-0.237,1.402-0.17,2.251l-0.082,0.169h1.336l0.668,0.082v0.833c-0.681,0.155-1.46,0.185-2.338,0.087l-0.247,0.247
		c-0.306,0.084-0.613,0.029-0.92-0.165H4.533l-0.082,0.165c-0.042-0.097-0.126-0.179-0.252-0.247
		c-0.222-0.933,0.278-1.267,1.501-1.002c0.403-0.794,0.432-1.601,0.087-2.42c0.194-0.417,0.165-0.835-0.087-1.254
		c0.1-0.32,0.073-0.652-0.082-0.997c-0.488,0.097-1.044,0.068-1.67-0.087C3.88,69.937,4.241,69.548,5.032,69.38"/>
	<path fill="#B54752" d="M13.411,74.362c0.194-0.011,0.408,0.01,0.644,0.058h0.174c0.494,0.797,0.376,1.498-0.353,2.101v0.175
		c-0.71,0.078-1.196-0.234-1.457-0.935l0.232-0.231C12.719,75.08,12.972,74.691,13.411,74.362"/>
	<path fill="#B54752" d="M23.582,72.309c0.301,0.339,0.36,0.799,0.177,1.38h-0.451c0.121-0.262,0.091-0.507-0.092-0.736
		L23.582,72.309z M23.668,73.964h-0.086H23.668c0.715,2.11,0.442,2.846-0.817,2.202c0.045-0.503-0.046-1.053-0.274-1.649
		c0.561,0.273,0.804,0.15,0.731-0.368l0.274-0.185H23.668z M22.486,69.371h1.182h0.274h0.731c0.154,0.552-0.12,0.797-0.822,0.736
		c0.122,1.513-0.12,1.94-0.726,1.283c0.029-0.32,0.12-0.656,0.274-1.008c-0.183,0.029-0.365,0.121-0.548,0.276
		c-0.109-0.339-0.322-0.585-0.639-0.736L22.486,69.371z M21.846,72.953h0.366c0.016,0.368,0.229,0.583,0.639,0.645
		c-0.138,0.258-0.381,0.41-0.731,0.46C22.12,73.657,22.029,73.289,21.846,72.953 M21.741,71.756
		c0.528,0.943,0.412,1.119-0.351,0.528L21.741,71.756z M21.39,71.206c0.259,0.062,0.32,0.214,0.183,0.459L21.39,71.206z
		 M20.02,72.769h-0.091H20.02c0.349,0.735,0.441,1.593,0.274,2.57c0.609,0.139,0.974,0.445,1.096,0.919
		c-0.183,0.063-0.426,0.185-0.731,0.368c-0.455-0.077-1.001-0.077-1.639,0h-0.274c-0.016-0.122-0.077-0.214-0.182-0.275
		c0.105-0.214,0.105-0.428,0-0.645c0.304-0.074,0.637-0.104,0.999-0.091c-0.012-0.336,0.079-0.672,0.274-1.007
		c-0.272-0.294-0.241-0.602,0.092-0.92c-0.228-0.262-0.228-0.568,0-0.92H20.02z M19.203,69.279c0.423-0.045,0.908,0.016,1.456,0.184
		h0.274c-0.045,0.445,0.138,0.783,0.548,1.013c-0.333,0.441-0.455,0.991-0.365,1.649c-0.304-0.074-0.548,0.049-0.731,0.368
		l-0.548,0.092c0.183-1.684-0.272-2.541-1.365-2.569C18.44,69.585,18.684,69.339,19.203,69.279"/>
	<path fill="#B54752" d="M27.899,74.362c0.194-0.011,0.408,0.01,0.644,0.058h0.174c0.494,0.797,0.376,1.498-0.353,2.101v0.175
		c-0.71,0.078-1.196-0.234-1.457-0.935l0.232-0.231C27.208,75.08,27.46,74.691,27.899,74.362"/>
	<path fill="#B54752" d="M36.521,74.996c0.181,0.278,0.36,0.278,0.538,0H36.521z M35.616,72.561l-0.087,0.271h0.629
		c0.049,0.407,0.139,0.467,0.271,0.179c0.052-0.103,0.052-0.224,0-0.362C36.125,72.68,35.854,72.652,35.616,72.561 M35.437,69.313
		c0.978,0.025,1.399,0.628,1.263,1.806c0.162,0.084,0.252,0.234,0.271,0.45c-0.135,0.074-0.256,0.192-0.363,0.357h0.543
		c0.038,0.616,0.219,1.249,0.542,1.898l0.179,1.263c0.674,0.01,1.095,0.34,1.263,0.992c-0.671,0.701-1.633,0.76-2.885,0.179
		c0-0.254,0.06-0.495,0.179-0.721c-0.071-0.155-0.071-0.335,0-0.542v-0.271c-0.255,0.014-0.495,0.104-0.721,0.271h-0.542
		l-0.271,0.092c0.755-0.013,1.116,0.318,1.084,0.992c-0.855,0.588-1.938,0.588-3.248,0c0.158-0.455,0.52-0.697,1.084-0.726
		c0.491-0.949,0.76-2.092,0.809-3.428c0.239-0.28,0.329-0.641,0.271-1.079c0.239-0.4,0.36-0.881,0.363-1.442
		C35.316,69.415,35.375,69.383,35.437,69.313"/>
	<path fill="#B54752" d="M42.369,74.362c0.194-0.011,0.408,0.01,0.644,0.058h0.174c0.494,0.797,0.376,1.498-0.353,2.101v0.175
		c-0.71,0.078-1.196-0.234-1.457-0.935l0.232-0.231C41.677,75.08,41.93,74.691,42.369,74.362"/>
	<path fill="#B54752" d="M325.768,46.042c-0.479,0.542-0.826,1.205-1.046,1.99c1.265,0.903,1.906,0.934,1.922,0.092
		c0.726,0.074,0.552-0.349-0.523-1.269l0.175-0.726C326.12,46.22,325.944,46.191,325.768,46.042 M325.681,49.571
		c-0.581,0.09-0.813,0.452-0.697,1.084l-0.349,0.634c0.975,0.785,1.381,0.965,1.22,0.543l0.179-0.359
		c0.697-0.213,0.813-0.485,0.349-0.818l0.087-0.542c0.378,0.497,0.465,0.316,0.262-0.542H325.681z M324.548,45.587
		c0.813,0.303,1.743,0.334,2.793,0.092c0.348,0.148,0.755,0.208,1.22,0.179c0.116,0.333,0.203,0.725,0.261,1.176
		c-0.307-0.013-0.655,0.078-1.046,0.271c0.03,0.288,0.175,0.499,0.437,0.635v0.726c-0.437,0.361-0.494,0.813-0.175,1.355
		c0,0.742,0.262,1.467,0.784,2.174l-0.087,0.634c-0.203-0.181-0.407-0.15-0.61,0.092c-0.465-0.168-0.958-0.199-1.48-0.092
		c-0.204-0.21-0.495-0.3-0.876-0.271l-0.35,0.271c-0.087-0.165-0.231-0.255-0.435-0.271v0.363c-0.333,0-0.681,0.09-1.046,0.271
		c-0.058-0.394-0.29-0.484-0.697-0.271c-0.042-0.123-0.129-0.244-0.261-0.363c0.058-0.543,0.377-0.904,0.958-1.085
		c-0.071-0.484-0.042-1.028,0.087-1.631c-0.029-0.197-0.087-0.408-0.174-0.634l0.261-0.634c-0.1-0.242-0.187-0.575-0.261-0.997
		l0.174-0.359l-0.174-0.363c-0.188-0.09-0.392-0.09-0.61,0l-0.087-0.905C323.618,46.024,324.082,45.903,324.548,45.587"/>
	<path fill="#B54752" d="M333.159,50.642c-0.081,0.113-0.195,0.226-0.344,0.339C333.287,51.147,333.401,51.035,333.159,50.642
		 M332.225,50.98c-0.206,0.09-0.376,0.259-0.509,0.508C332.794,51.552,332.964,51.383,332.225,50.98 M331.886,47.5l1.525,0.082
		l0.256,0.087l0.595,0.083h0.252c0.568,0.952,0.682,2.028,0.34,3.229l0.257,0.421c0.678-0.055,1.017,0.285,1.017,1.021l-0.339,0.426
		c-0.352-0.158-0.748-0.244-1.187-0.257l-0.17-0.338h-0.513c-0.974,0.865-2.105,0.835-3.394-0.088c0.091-0.506,0.091-1.071,0-1.694
		c0.213-0.213,0.496-0.44,0.848-0.682V49.45C330.438,48.851,330.608,48.199,331.886,47.5"/>
	<path fill="#B54752" d="M341.253,47.48h0.165c0.366,0.123,0.803,0.34,1.307,0.654l0.16,0.082c-0.026,0.229,0.029,0.447,0.164,0.653
		c-0.164,0.326-0.41,0.625-0.736,0.896c-0.435-0.094-0.68-0.392-0.735-0.896c-1.249,0.191-1.684,0.98-1.303,2.367
		c0.407,0.107,0.788,0.107,1.144,0c-0.056,0.217-0.056,0.462,0,0.736c-0.042,0.216-0.124,0.46-0.247,0.731
		c-0.301-0.039-0.626,0.016-0.979,0.165h-0.247c-0.57-0.245-1.224-0.328-1.96-0.247l-0.325-0.324
		c0.056-0.217,0.083-0.462,0.083-0.736l0.324-0.165c0.329-0.013,0.657-0.066,0.983-0.16v-1.878c0.013-0.055-0.016-0.11-0.083-0.164
		v-0.325c-0.613,0.013-0.994-0.287-1.143-0.9c0.61-0.491,1.399-0.491,2.367,0C340.492,47.875,340.846,47.712,341.253,47.48"/>
	<path fill="#B54752" d="M347.148,50.559h0.247C347.272,50.82,347.19,50.82,347.148,50.559 M347.807,49.654
		c-0.273,0.232-0.63,0.314-1.068,0.246l-0.084,0.247c-0.177,0.11-0.368,0.275-0.575,0.494l0.575,0.247
		c-0.189,0.219-0.217,0.466-0.081,0.741c1.109,0.138,1.467-0.218,1.069-1.07l0.082-0.247
		C348.451,50.393,348.478,50.173,347.807,49.654 M347.478,45.539c0.397,0.097,0.892,0.152,1.481,0.165
		c0.055,0.274,0.192,0.521,0.412,0.74l-0.083,1.646v0.658l0.083,0.165c-0.068,0.329-0.096,0.713-0.083,1.152
		c-0.151,0.245-0.206,0.52-0.164,0.823l0.164,0.247l-0.164,0.411c0.261-0.013,0.48,0.07,0.658,0.247
		c0.249,0.191,0.304,0.437,0.165,0.741l-0.411,0.164c-0.727-0.287-1.468-0.232-2.224,0.165l-1.233-0.411h-0.247
		c-0.19-0.426-0.355-0.948-0.494-1.564l-0.164-0.082c0-0.081-0.027-0.163-0.082-0.247l0.082-0.247l-0.165-0.247l0.165-0.576
		c0.122-0.274,0.205-0.603,0.247-0.987c0.178-0.11,0.313-0.275,0.411-0.494c0.207-0.029,0.398-0.139,0.577-0.329
		c0.248,0.232,0.549,0.232,0.903,0c0.233,0.206,0.563,0.343,0.988,0.411c0.068-0.632-0.207-0.934-0.823-0.905
		c-0.042-0.11-0.124-0.192-0.247-0.247C346.712,46.431,346.794,45.965,347.478,45.539"/>
	<path fill="#B54752" d="M327.769,59.817c-0.552,1.152-0.71,2.414-0.474,3.786l0.663-0.189v-3.311L327.769,59.817z M324.55,60.572
		c0.126,0.633,0.126,1.422,0,2.367l0.474,0.76l0.093,0.189l0.663-0.098c-0.017-0.71-0.204-1.215-0.566-1.515
		c-0.064-0.297-0.19-0.611-0.377-0.944C324.803,61.081,324.708,60.827,324.55,60.572 M323.698,57.45l1.515,0.663
		c0.032,0.316,0.032,0.696,0,1.138c0.268,0.455,0.52,1.054,0.755,1.797l-0.092,0.377l0.566,0.285
		c0.175-0.441,0.206-0.946,0.097-1.515c0.285-0.236,0.44-0.583,0.47-1.041l0.097-0.566l0.098-0.383l0.092-0.28
		c0.647-0.251,1.342-0.251,2.081,0c-0.077,0.283-0.267,0.505-0.566,0.663c0.093,0.756,0.03,1.574-0.188,2.46v0.284v0.286v0.377
		c0.142,0.317,0.205,0.664,0.188,1.041v0.378l0.475,0.377l0.188,0.098v0.852c-0.41-0.219-0.883-0.252-1.418-0.097
		c-0.365,0.049-0.744-0.045-1.138-0.28c-0.269,0.093-0.552,0.124-0.853,0.092l-0.663,0.188h-0.285l-0.188-0.092l-0.756,0.188
		l-0.285-0.097l-0.663-0.188c-0.049-0.472,0.172-0.818,0.663-1.041c-0.049-0.426-0.049-0.994,0-1.704l-0.188-1.041
		c0.126-0.377,0.155-0.819,0.092-1.325l-0.092-0.286l0.092-0.47c-0.188-0.238-0.439-0.396-0.755-0.475
		C323.161,57.877,323.382,57.657,323.698,57.45"/>
	<path fill="#B54752" d="M333.19,62.538c-0.081,0.113-0.195,0.227-0.344,0.339C333.318,63.043,333.433,62.931,333.19,62.538
		 M332.257,62.876c-0.207,0.09-0.376,0.26-0.509,0.509C332.825,63.449,332.995,63.28,332.257,62.876 M331.917,59.396l1.525,0.082
		l0.256,0.087l0.596,0.083h0.253c0.566,0.952,0.68,2.028,0.338,3.229l0.257,0.421c0.678-0.055,1.016,0.285,1.016,1.021l-0.338,0.426
		c-0.352-0.158-0.747-0.244-1.186-0.257l-0.171-0.338h-0.513c-0.974,0.865-2.105,0.835-3.393-0.088c0.09-0.506,0.09-1.071,0-1.694
		c0.213-0.213,0.495-0.439,0.847-0.682v-0.339C330.469,60.747,330.64,60.096,331.917,59.396"/>
	<path fill="#B54752" d="M339.886,62.456h0.247C340.01,62.716,339.928,62.716,339.886,62.456 M340.543,61.55
		c-0.273,0.232-0.631,0.314-1.069,0.246l-0.082,0.247c-0.177,0.11-0.369,0.275-0.576,0.494l0.576,0.247
		c-0.19,0.219-0.218,0.466-0.082,0.74c1.109,0.139,1.467-0.218,1.069-1.069l0.082-0.247C341.188,62.29,341.215,62.07,340.543,61.55
		 M340.215,57.436c0.396,0.097,0.891,0.152,1.48,0.165c0.055,0.274,0.192,0.521,0.412,0.74l-0.083,1.646v0.657l0.083,0.165
		c-0.068,0.329-0.095,0.713-0.083,1.152c-0.151,0.245-0.206,0.52-0.164,0.823l0.164,0.247l-0.164,0.411
		c0.261-0.014,0.481,0.069,0.658,0.246c0.249,0.191,0.304,0.438,0.165,0.741l-0.412,0.164c-0.727-0.287-1.466-0.231-2.222,0.165
		l-1.234-0.411h-0.247c-0.19-0.426-0.355-0.948-0.494-1.563l-0.164-0.082c0-0.081-0.027-0.163-0.082-0.247l0.082-0.247l-0.165-0.247
		l0.165-0.576c0.122-0.273,0.205-0.603,0.247-0.987c0.177-0.109,0.314-0.274,0.411-0.493c0.207-0.029,0.399-0.14,0.576-0.329
		c0.249,0.231,0.55,0.231,0.905,0c0.232,0.206,0.562,0.343,0.987,0.411c0.068-0.633-0.207-0.935-0.822-0.905
		c-0.043-0.11-0.124-0.192-0.247-0.247C339.448,58.328,339.53,57.862,340.215,57.436"/>
	<path fill="#B54752" d="M348.337,62.499c-0.335,0.206-0.728,0.289-1.176,0.247c0,0.406,0.197,0.631,0.59,0.673
		C348.868,62.986,349.063,62.68,348.337,62.499 M347.33,60.737c-0.545,0.365-0.629,0.616-0.251,0.755
		c0.28,0.42,0.7,0.308,1.258-0.334C348.14,60.864,347.805,60.724,347.33,60.737 M347.248,59.396c1.104,0,1.885,0.531,2.343,1.593
		c0.461,0.545,0.407,1.076-0.165,1.592c0.518,0.769,0.46,1.272-0.169,1.511v0.246c-0.794,0.407-1.688,0.521-2.682,0.34v-0.251
		c-0.643-0.476-1.033-1.175-1.171-2.097l-0.252-0.335c0.238-1.313,0.881-2.096,1.927-2.347
		C347.091,59.577,347.148,59.493,347.248,59.396"/>
	<path fill="#B54752" d="M317.016,75.843c-0.137,0.468-0.036,0.5,0.3,0.097L317.016,75.843z M314.914,69.855
		c0.101,0.435,0.232,0.468,0.397,0.097L314.914,69.855z M314.914,75.17l-0.401,0.29C315.646,75.812,315.779,75.715,314.914,75.17
		 M314.015,70.048l-0.103,0.774c-0.368-0.129-0.502,0-0.401,0.388c-0.248,0.546-0.248,1.125,0,1.737
		c-0.349,0.61-0.216,0.932,0.401,0.963l-0.102,0.389c0.436-0.308,0.97-0.469,1.602-0.484l0.402,0.484
		c0.881,0.371,1.247-0.241,1.099-1.835c0.185-1.497-0.416-2.142-1.801-1.933C314.813,70.307,314.446,70.145,314.015,70.048
		 M315.312,68.601l0.203,0.484h0.696c1.537,1.126,2.07,2.607,1.603,4.443c0.184,0.255,0.284,0.576,0.3,0.963
		c-0.467,0.194-0.732,0.581-0.798,1.162c0.281,0.077,0.581,0.205,0.9,0.382l0.198,0.098c0.067,0.839-0.198,1.644-0.799,2.416
		l-0.503-0.098c-1.001-0.081-1.533-0.628-1.598-1.641c-1.8-0.323-2.901-1.417-3.302-3.282c-0.035-0.339,0.03-0.693,0.198-1.064
		c-0.084-0.21-0.084-0.469,0-0.775l0.103-0.576v-0.387l0.097-0.29l0.503-0.097c0.016-0.437,0.282-0.692,0.799-0.771
		c0.248-0.452,0.684-0.613,1.303-0.483L315.312,68.601z"/>
	<path fill="#B54752" d="M323.313,71.283h-0.087h0.17H323.313h0.165h-0.082h0.164h-0.082h0.169h-0.087h0.087l0.833,0.334
		c-0.035,0.216-0.008,0.439,0.082,0.668c-0.077,0.368-0.104,0.813-0.082,1.331v0.252v0.247l-0.087,0.334
		c-0.02,0.064-0.073,0.121-0.165,0.169v0.247v0.252l0.833,0.164c0.017,0.291,0.127,0.597,0.333,0.92
		c-0.773,0.446-1.606,0.362-2.497-0.252c-0.271,0.31-0.633,0.533-1.085,0.669l-1.249-0.833c0.14-0.438,0.11-0.938-0.087-1.501
		l0.252-0.082l-0.252-0.169c0.137-0.401,0.165-0.872,0.087-1.414l-1.001-0.421l0.082-0.581c0.69-0.2,1.441-0.173,2.251,0.082
		c-0.352,0.252-0.268,0.502,0.252,0.751h-0.087h0.087h-0.17h0.083h-0.165h0.082h-0.082c-0.273,0.6-0.413,1.323-0.416,2.168
		c0.116,0.755,0.644,0.783,1.582,0.083c-0.035-0.354,0.076-0.688,0.335-1.002c-0.104-0.13-0.27-0.184-0.499-0.165
		c-0.1-0.284-0.322-0.507-0.668-0.668c0.049-0.994,0.438-1.467,1.167-1.418l-0.17-0.165H323.313z"/>
	<path fill="#B54752" d="M329.64,74.434c-0.08,0.113-0.195,0.227-0.344,0.34C329.768,74.941,329.882,74.828,329.64,74.434
		 M328.706,74.774c-0.207,0.09-0.376,0.259-0.509,0.508C329.275,75.345,329.444,75.176,328.706,74.774 M328.366,71.292l1.525,0.082
		l0.256,0.087l0.596,0.083h0.253c0.567,0.952,0.681,2.028,0.339,3.229l0.256,0.421c0.678-0.056,1.016,0.284,1.016,1.021
		l-0.338,0.426c-0.352-0.157-0.747-0.243-1.186-0.257l-0.171-0.338h-0.513c-0.974,0.864-2.104,0.835-3.393-0.088
		c0.09-0.506,0.09-1.071,0-1.694c0.213-0.213,0.495-0.439,0.847-0.682v-0.339C326.918,72.643,327.089,71.993,328.366,71.292"/>
	<path fill="#B54752" d="M335.599,69.371c0.594-0.042,1.246,0.127,1.956,0.508c-0.084,0.397-0.084,0.823,0,1.278
		c-0.059,0.171-0.087,0.396-0.087,0.678l-0.17,0.174v0.34v0.257l-0.082,0.338v0.935v0.935c0.013,0.07,0.013,0.186,0,0.344
		l0.082,0.339l0.514-0.17c0.409,0.142,0.89,0.199,1.442,0.17c0.058,0.225,0.058,0.48,0,0.764c-0.766,0.41-1.672,0.496-2.721,0.258
		c-0.723,0.226-1.487,0.14-2.295-0.258c0.059-0.325,0.256-0.637,0.596-0.934c0.48,0.168,0.935,0.168,1.36,0
		c0.071-0.368,0.071-0.821,0-1.36c0-0.184,0.027-0.412,0.082-0.683l-0.169-0.508v-0.257c0.029-0.255,0.029-0.596,0-1.021
		l0.087-0.339l-0.087-0.339c-0.368-0.059-0.793-0.059-1.273,0l-0.596-0.087c0-0.084-0.028-0.169-0.087-0.256
		C334.081,69.681,334.563,69.313,335.599,69.371"/>
	<path fill="#B54752" d="M343.571,69.332c0.236,0.172,0.553,0.276,0.949,0.315l-0.16,0.479c0.422,0.538,0.29,0.934-0.396,1.186
		c0.025,0.21,0.132,0.368,0.318,0.474l0.078,1.583l-0.078,0.237l0.078,0.16v0.314l-0.078,0.237v0.319l0.078,0.237l0.315-0.083
		c0.384,0.359,0.781,0.412,1.189,0.16c0.159,0.171,0.289,0.384,0.393,0.635l0.16,0.077l-0.315,0.794
		c-0.503,0.094-1.11,0.119-1.82,0.077l-0.236,0.16c-0.606-0.158-1.371-0.237-2.294-0.237h-0.238
		c-0.145-0.304-0.172-0.673-0.082-1.108c0.146-0.065,0.278-0.169,0.397-0.315c0.619,0.317,1.094,0.185,1.424-0.396
		c-0.146-0.371-0.197-0.793-0.155-1.269l-0.32-0.552c-0.41,0.026-0.857-0.027-1.346-0.159c-0.103-0.833,0.346-1.307,1.346-1.424
		C342.543,70.508,342.807,69.874,343.571,69.332"/>
	<path fill="#B54752" d="M350.426,69.371c0.452,0.045,0.627,0.279,0.527,0.702c0.438,0.248,0.497,0.657,0.175,1.225l0.174,0.267
		c0.41-0.062,0.907-0.18,1.491-0.354c0.161,0.308,0.425,0.57,0.789,0.79c-0.232,0.629-0.7,0.863-1.404,0.701
		c-0.276,0.191-0.599,0.249-0.963,0.175c-0.074,0.352-0.074,0.761,0,1.229c-0.074,0.291-0.074,0.641,0,1.051v0.348
		c0.729-0.013,1.227-0.392,1.491-1.137c0.845,0.087,1.079,0.495,0.702,1.224c-0.526,0.966-1.403,1.286-2.629,0.965l-0.527-0.437
		l-0.175-0.528v-0.609l-0.266-0.701c0.058-0.178,0.087-0.412,0.087-0.702l0.267-0.088l-0.175-0.789
		c-0.732,0.133-1.171-0.13-1.316-0.789c0.293-0.422,0.672-0.569,1.138-0.439C349.711,70.684,349.916,69.984,350.426,69.371"/>
	<path fill="#B54752" d="M359.42,72.401c-0.283,0.029-0.569,0.144-0.856,0.344l-0.175-0.087l0.344,0.256
		c-0.1,0.288-0.012,0.519,0.262,0.693c-0.045,0.171-0.045,0.399,0,0.687l0.343-0.087C360.037,73.232,360.065,72.629,359.42,72.401
		 M361.139,71.283l0.344,0.087l0.174,0.087h0.087h-0.087h0.087L362,72.058l-0.257,0.43c-0.532-0.058-0.905,0.199-1.118,0.77h-0.256
		c0,0.604-0.202,1.205-0.605,1.807l0.174,0.261c-0.358,0.542-0.587,1.201-0.688,1.975c-0.157,0.287-0.271,0.632-0.343,1.031
		l-0.344-0.082l-0.262,0.426c-1.245,0.146-2.019-0.428-2.318-1.719c0.287-0.171,0.516-0.429,0.687-0.773h0.519
		c0.787,1.032,1.417,0.832,1.888-0.601l-0.431-0.088c-0.042-0.687-0.357-1.23-0.944-1.631c0.071-0.358-0.043-0.674-0.343-0.949
		l0.087-0.169c-0.329-0.158-0.73-0.244-1.206-0.257l-0.082-0.948c0.872-0.229,1.844-0.229,2.919,0c0.416-0.1,0.933-0.157,1.549-0.17
		h0.258C360.97,71.37,361.055,71.34,361.139,71.283"/>
</g>
</svg>
