<?xml version="1.0" encoding="utf-8"?>
<!-- Generator: Adobe Illustrator 16.0.0, SVG Export Plug-In . SVG Version: 6.00 Build 0)  -->
<!DOCTYPE svg PUBLIC "-//W3C//DTD SVG 1.1//EN" "http://www.w3.org/Graphics/SVG/1.1/DTD/svg11.dtd">
<svg version="1.1" id="Layer_1" xmlns="http://www.w3.org/2000/svg" xmlns:xlink="http://www.w3.org/1999/xlink" x="0px" y="0px"
	 width="140px" height="72px" viewBox="111 10 140 72" enable-background="new 111 10 140 72" xml:space="preserve">
<g>
	<path fill="#FFFFFF" d="M113.389,26.286c-0.38,0.667,0.064,2.517,1.454,2.681c1.31,0.171,2.226-1.055,2.687-1.836
		c1.282-2.183,1.282-2.183,1.785-3.497c1.387-3.676,2.541-6.057,4.708-5.895c0.304,2.225-1.449,4.269-2.224,6.295
		c-0.902,2.363-1.469,4.684-3.388,6.44c-1.714,1.559-3.865,2.242-5.868,0.679c-1.455-1.134-2.75-5.707,0.399-5.249
		c0.238,0.614,0.101,0.715,0.025,0.802"/>
	<path fill="#FFFFFF" d="M117.07,12.762c-1.867-0.272-2.335,1.62-1.274,2.848c0.87,0.997,3.093,1.301,4.334,1.196
		c2.786-0.235,6.046-2.194,8.79-2.104c0.179,1.666-1.907,4.451-2.607,5.986c-0.913,2.02-3.485,4.556-2.263,6.279
		c1.64,2.321,3.916-2.585,5.298-5.616c1.636-3.619,4.396-8.311,4.045-10.105c-0.286-1.422-3.732,0.287-5.181,0.53
		c-1.593,0.265-2.876,1.348-4.264,2.227c-1.188,0.763-2.832,1.874-4.223,1.947c-3.416,0.207-1.588-2.146-2.87-2.991"/>
	<path fill="#FFFFFF" d="M130.537,22.139c0.351-2.226,2.874-5.746,3.562-5.687c2.025,0.146-1.128,5.346-1.019,6.887
		c3.441-1.766,4.008-7.449,7.907-8.346c7.843-1.817,2.956,7.688-0.749,5.022c0.794-0.805,1.385-1.553,1.347-2.685
		c-1.444,0.192-1.832,2.74-1.602,4.115c2.491,1.006,6.073-1.429,6.785-3.714c3.612,0-1.89,4.132-3.052,5.007
		c-2.485,1.867-5.567,2.55-7.125-0.459c-0.937,1.743-2.182,4.03-4.811,3.795c-2.879-0.257-1.782-2.724-0.905-4.724"/>
	<path fill="#FFFFFF" d="M132.837,52.642c0.014-0.254,0.383-0.318,0.018-0.428c-2.993-0.264-4.919,3.44-7.766,1.463
		c-3.081-2.129,2.825-3.451,4.609-4.029c2.683-0.834,5.86-0.828,8.011,1.608c1.943,2.162,0.112,4.812-1.734,6.393
		c-4.392,3.752-13.651,3.259-16.266-1.915c-2.179-4.354,0.044-11.653,2.516-16.426c2.376-4.601,7.319-8.903,12.072-10.92
		c2.839-1.212,6.057-2.141,9.203-2.312c3.242-0.159,5.095,1.75,7.32,3.61c2.112,1.755,8.781,3.775,8.785-2.352
		c0.002-4.547-7.781,3.529-9.022-0.203c2.159-2.582,12.363-4.569,11.513,1.174c3.115-1.175,3.506,5.156,2.797,8.122
		c-0.671,2.858-1.373,4.753-3.061,7.337c-4.177,6.379-9.221,9.108-13.85,9.303c-7.855,0.309-9.685-6.45-8.083-12.608
		c0.355-1.367,3.07-6.996,5.198-6.996c2.398,0,0.306,1.975,0.15,2.965c-0.287,1.723-0.846,3.775-0.702,5.334
		c0.269,2.773-0.903,6.555,3.121,6.915c3.431,0.286,4.683,0.286,7.592-2.675c3.651-3.735,6.02-9.793,6.015-14.931
		c-1.206,6.605-10.81,4.537-14.491,1.342c-2.303-2.008-2.651-4.029-7.052-3.817c-2.577,0.12-5.322,2.281-7.267,4.022
		c-4.169,3.752-6.66,8.08-8.665,13.297c-1.044,2.708-2.109,5.904,0.1,8.343c2.111,2.351,6.415,2.523,8.655,0.717
		c0.798-0.651,0.505-1.601,0.695-2.695c0,0.183,0.043,0.397,0,0.577"/>
	<path fill="#FFFFFF" d="M166.911,32.765c2.132,0.412,3.249,2.774,5.855,1.462c1.69-0.843,3.949-3.753,4.159-5.614
		c-3.494,1.587-6.901,8.159-7.702,11.678c-0.646,2.839,0.249,5.722,2.552,2.361c1.331-1.956,2.173-4.412,4.947-3.988
		c-1.461,2.376-1.714,4.499-4.113,6.49c-2.026,1.703-5.759,2.601-7.632,0.003c-1.75-2.417,0.057-6.692,1.041-9.032
		c1.323-3.141,3.161-4.873,5.658-7.171c1.675-1.539,3.907-3.636,6.277-2.626c3.214,1.375,1.099,4.313-0.324,6.035
		c-1.264,1.524-3.135,4.285-5.486,3.973c-1.161-0.168-4.864-2.572-5.429-3.571"/>
	<path fill="#FFFFFF" d="M180.51,41.973c0.086-1.162,2.797-2.187,4.146-1.626c1.777,4.115-4.564,6.897-7.236,4.124
		c-3.738-3.857-0.734-7.2,2.58-9.417c-0.692,0.451-1.387,0.792-2.021,1.398c1.422-1.995,6.136-4.5,8.344-2.454
		c0.229-2.299,2.599-5.616,3.957-7.506c0.74-1.02,1.643-2.129,2.984-2.305c2.466-0.311,2.09,0.842,1.523,2.314
		c-1.069,2.768-2.229,5.43-3.2,8.152c-0.431,1.197-3.602,7.277-1.283,7.077c2.925-4.658,5.33-9.443,8.661-13.929
		c1.825-2.482,3.671-5.663,6.838-6.328c3.71-0.777,5.153,2.247,3.102,4.967c-2.349,3.109-4.374,5.065-8.077,5.969
		c-0.078,0.085-0.075,0.087,0.009,0.008c1.967-2.123,4.591-5.251,4.984-8.147c-3.679,3.985-8.006,10.936-7.712,16.408
		c2.732,1.891,6.094-2.118,5.409-4.974c-0.323-1.335-2.094-1.875-0.993-3.3c0.983-1.266,3.076-0.702,3.971,0.313
		c4.164,4.736-5.379,11.755-9.67,11.126c-1.207-0.154-2.241-0.683-2.674-1.857c-0.628,2.534-6.127,2.717-7.801,1.294
		c-2.196-1.912-0.819-5.818-0.442-8.396c-1.813,0.822-7.971,4.569-5.607,7.299"/>
	<path fill="#FFFFFF" d="M219.372,23.602c-0.578,2.919-1.848,3.814-3.944,5.397l0.421-0.408c-0.184,0.051-0.198,0.357-0.591,0.169
		C215.276,27.36,218.076,23.74,219.372,23.602 M249.048,29.164c-2.061,1.87-2.934,4.472-5.764,5.743
		c-3.362,1.526-5.759-1.878-4.853-5.064c0.356-1.248,2.201-3.411,3.493-2.667c1.601,0.912-0.482,2.656-1.576,3.12
		c-0.991,1.875,1.357,2.165,2.681,1.641c1.205-0.493,2.11-1.864,2.764-2.883c1.894-2.956-0.708-5.31-4.068-5.229
		c-5.875,0.13-6.969,9.335-10.866,12.448c-0.491,0.406-1.228,0.661-1.798,0.862c0.104-1.816,1.096-4.174,2.104-5.826
		c1.044-1.708,2.854-4.005-0.469-4.18c-5.077-0.288-5.416,6.614-5.441,10.05c-0.304-0.71-1.771-0.896-2.681-0.26
		c0.541-2.54,3.021-5.778,3.953-8.328c-2.968-3.341-6.154,2.419-7.599,4.35c-1.638,2.172-3.169,5.549-6.189,5.869
		c-0.128-2.833,0.458-6.762,1.956-9.558c-0.114,0.306-0.209,0.633-0.285,0.965c2.761,0.199,5.24-1.976,6.82-4.179
		c1.682-2.34,2.574-6.539-1.636-6.033c-5.015,0.591-9.812,7.35-11.54,11.664c-1.07,2.721-1.853,6.444,0.953,8.355
		c2.994,2.054,6.16,0.478,7.881-1.846c-0.021,4.565,6.492,0.962,8.116,0.05c0.749,2.367,3.699,1.354,5.271,0.651
		c2.046-0.917,2.845-2.458,4.551-3.57c3.279,6.105,9.83,1.159,13.376-2.378c0.801-0.793,2.062-1.727,2.505-2.727
		C251.559,28.307,250.416,27.923,249.048,29.164"/>
	<path fill="#FFFFFF" d="M118.333,73.138c-0.24-2.438-0.482-3.524,0.963-6.435c0.844-1.726,4.116-6.399,0.795-7.378
		c-5.136-1.533-8.657,11.795-7.913,15.01c1.211,5.285,8.026,8.719,13.969,6.058c2.921-1.313,4.81-3.562,5.965-5.594
		c1.033-1.808-0.309-7.416-4.87-6.646c-0.508,0.104-0.965,0.551-1.333,0.792c1.903,2.342,1.956,5.814-0.757,7.591
		c-1.879,1.239-5.423,1.567-6.338-1.618C118.607,74.146,118.358,73.402,118.333,73.138"/>
	<path fill="#FFFFFF" d="M146.005,58.28c-3.101-2.612-8.119,8.411-6.232,9.16c3.171,1.292,3.641-4.979,4.183-6.54
		c0.21-0.61,0.177-0.478,0.344-0.906c0.476-1.135,1.453-2.159,2.712-1.896c0.939,1.707,1.324,5.093,3.96,2.465
		c1.428-1.405,1.733-3.949,2.808-5.598c0.81-0.141,1.702-0.024,2.444,0.203c-0.112,0.487-0.071,0.915-0.414,1.349
		c1.078-2.037,4.555-3.903,6.139-1.631c1.66,2.388-0.488,5.953-1.519,8.224c-0.423,0.955-0.915,2.527-1.87,3.087
		c-1.176,0.661-3.174,0.496-3.566-0.803c-0.786-2.534,3.054-5.382,3.14-7.877c-0.003,0.252-0.038,0.518-0.071,0.762
		c-0.721,0.256-1.471,0.297-2.184,0.019c-0.627,2.853-1.548,6.183-3.761,8.405c-1.056,1.074-3.076,2.17-3.818,0.165
		c-0.409-1.099,0.934-3.525,1.275-4.535c-0.777,0.978-1.769,0.518-2.06-0.483c-0.254,4.576-8.45,12.463-11.731,6.438
		c-0.809-1.499,0.187-6.097,2.117-8.498c1.356-1.692,4.726-5.255,7.069-3.159c0.55,0.479,0.683,0.609,1.074,1.178
		C146.374,58.272,146.005,58.28,146.005,58.28"/>
	<path fill="#FFFFFF" d="M163.774,56.198c0.251-0.533,0.991-0.79,1.418-0.341c1.272,1.359-1.753,4.64-1.826,6.611
		c-0.161,3.558,0.905,4.101,4.978,3.164c-0.583,1.252-2.934,7.914,0.872,7.303c2.473-0.399,3.655-5.276,4.146-6.849
		c0.801-2.53,1.466-5.452,2.547-8.139c0.618-1.567,1.649-2.658,1.673-4.109c0.029-1.808-1.539-2.015-2.983-0.848
		c-2.216,1.793-4.25,11.12-7.029,10.265c0.606-2.15,3.315-7.001,2.282-9.381c-1.306-2.967-7.704,1.326-6.487,2.535
		C163.44,56.482,163.732,56.292,163.774,56.198"/>
	<path fill="#FFFFFF" d="M180.72,53.879c0.801,1.051-1.097,5.142-1.93,6.436c-0.939,1.443-1.509,1.14-2.833,1.989
		c-0.89,0.578-2.354,2.113-1.236,3.301c1.539,1.627,5.384-1.29,6.8-2.05c2.192-1.217,4.229-2.309,6.049-3.987
		c0.811,2.332,3.608,3.105,5.619,2.389c0.484-0.176,2.411-0.933,2.541-2.052c0.177-1.439-2.123-1.129-2.828-0.599
		c-1.491-4.552,3.476-7.772,7.028-7.957c-0.877-5.397-7.331-0.814-9.17,1.386c-2.201,2.617-4.342,4.878-6.702,7.349
		c0.222-2.546,2.619-5.737,0.356-8.135c-1.905-2.031-8.286,0.319-6.347,2.744c0.685,0.862,1.893,0.438,2.442-0.603"/>
	<path fill="#FFFFFF" d="M204.769,57.438c-0.426,0.837-1.129,2.445-0.254,2.981c3.356,1.991,4.75-2.786,5.547-4.701
		c1.091-2.65,4.07-7.13,2.897-9.103c-1.459-2.465-3.955,3.601-6.051,5.652c-1.945,1.928-3.784,3.118-6.074,4.725
		c-0.371-2.87,2.889-4.919,2.819-8.162c-3.529-0.677-6.882,5.653-7.252,8.185c-0.334,2.303,0.914,4.073,3.136,4.189
		c2.209,0.146,3.322-1.557,4.599-3.345"/>
	<path fill="#FFFFFF" d="M214.805,49.93c-1.082,1.511-5.319,7.065-1.292,9.134c2.27,1.147,6.903-0.876,7.971-4.665
		c1.987,3.04,4.453,3.476,7.513,1.625c-0.893,2.442-5.243,7.383-7.895,7.656c0.116-1.184,3.526-3.682,4.744-3.768
		c-0.021-2.82-7.644,1.615-7.9,3.401c-0.301,2.019,1.679,2.898,3.091,3.135c1.955,0.313,3.438-0.336,5.158-1.296
		c2.369-1.329,4.42-3.088,5.807-5.554c0.59-1.042,0.772-3.207,1.662-3.988c1.128-0.962,2.853-0.227,4.092-1.142
		c1.271-0.942,4.832-5.918,2.564-6.649c-3.254-1.069-3.241,5.895-5.685,5.617c0.069-2.564,1.469-5.601,2.295-7.782
		c0.66-1.722-0.66-3.86-2.432-1.031c-2.553,4.033-2.38,9.527-8.229,10.28c0.409-2.527,1.66-5.152,3.068-7.204
		c0.539-0.807,2.093-3.035,0.523-3.647c-0.938-0.348-3.03,0.843-3.664,1.418c-2.081,1.843-2.469,3.481-4.335,5.647
		c-1.461,1.666-3.282,3.65-5.141,4.781c0.039-3.199,4.257-7.594,2.252-9.688c-1.205-1.275-6.878,1.098-5.519,3.337
		c0.34,0.544,1.24,0.718,1.765,0.594L214.805,49.93z"/>
</g>
</svg>
