<?xml version="1.0" encoding="utf-8"?>
<!-- Generator: Adobe Illustrator 16.0.0, SVG Export Plug-In . SVG Version: 6.00 Build 0)  -->
<!DOCTYPE svg PUBLIC "-//W3C//DTD SVG 1.1//EN" "http://www.w3.org/Graphics/SVG/1.1/DTD/svg11.dtd">
<svg version="1.1" id="Layer_1" xmlns="http://www.w3.org/2000/svg" xmlns:xlink="http://www.w3.org/1999/xlink" x="0px" y="0px"
	 width="240px" height="76px" viewBox="61 8 240 76" enable-background="new 61 8 240 76" xml:space="preserve">
<g>
	<path fill="#FFFFFF" d="M114.069,25.345c-0.398,0.699,0.067,2.637,1.523,2.81c1.373,0.179,2.332-1.106,2.815-1.924
		c1.343-2.287,1.343-2.287,1.87-3.664c1.453-3.852,2.662-6.346,4.932-6.176c0.319,2.331-1.518,4.473-2.33,6.596
		c-0.945,2.476-1.539,4.907-3.549,6.748c-1.796,1.633-4.049,2.349-6.148,0.711c-1.524-1.188-2.88-5.979,0.418-5.5
		c0.25,0.643,0.106,0.75,0.027,0.84"/>
	<path fill="#FFFFFF" d="M117.926,11.175c-1.956-0.285-2.446,1.697-1.335,2.984c0.911,1.044,3.241,1.363,4.542,1.252
		c2.919-0.246,6.335-2.299,9.21-2.205c0.187,1.746-1.998,4.664-2.731,6.271c-0.956,2.117-3.652,4.773-2.371,6.579
		c1.718,2.432,4.102-2.709,5.551-5.884c1.714-3.792,4.605-8.708,4.238-10.587c-0.3-1.49-3.91,0.301-5.428,0.556
		c-1.669,0.278-3.014,1.412-4.467,2.333c-1.245,0.8-2.967,1.963-4.425,2.04c-3.579,0.216-1.664-2.249-3.007-3.134"/>
	<path fill="#FFFFFF" d="M132.036,21c0.368-2.332,3.011-6.021,3.732-5.958c2.122,0.153-1.182,5.602-1.067,7.216
		c3.605-1.85,4.199-7.804,8.284-8.744c8.218-1.903,3.097,8.055-0.785,5.262c0.833-0.843,1.452-1.627,1.411-2.813
		c-1.513,0.202-1.919,2.871-1.678,4.311c2.609,1.055,6.362-1.498,7.109-3.892c3.784,0-1.98,4.33-3.198,5.246
		c-2.604,1.956-5.833,2.671-7.464-0.481c-0.982,1.826-2.286,4.222-5.041,3.976c-3.016-0.269-1.867-2.854-0.948-4.95"/>
	<path fill="#FFFFFF" d="M134.446,52.959c0.015-0.267,0.401-0.334,0.018-0.448c-3.135-0.276-5.153,3.604-8.137,1.532
		c-3.228-2.23,2.959-3.615,4.829-4.222c2.811-0.873,6.14-0.867,8.394,1.686c2.036,2.266,0.118,5.041-1.817,6.697
		c-4.602,3.932-14.303,3.415-17.042-2.006c-2.283-4.563,0.046-12.209,2.636-17.21c2.489-4.821,7.668-9.328,12.648-11.442
		c2.975-1.271,6.346-2.244,9.642-2.422c3.397-0.167,5.338,1.834,7.67,3.782c2.213,1.838,9.2,3.956,9.204-2.464
		c0.002-4.764-8.153,3.698-9.453-0.213c2.262-2.705,12.953-4.788,12.062,1.23c3.264-1.231,3.674,5.402,2.931,8.509
		c-0.703,2.994-1.438,4.98-3.207,7.688c-4.377,6.683-9.661,9.543-14.511,9.747c-8.23,0.324-10.147-6.758-8.469-13.209
		c0.372-1.433,3.216-7.33,5.446-7.33c2.513,0,0.32,2.069,0.157,3.106c-0.301,1.805-0.886,3.955-0.735,5.589
		c0.282,2.906-0.946,6.868,3.27,7.246c3.595,0.3,4.906,0.3,7.954-2.803c3.826-3.913,6.307-10.261,6.302-15.644
		c-1.264,6.921-11.326,4.754-15.183,1.406c-2.413-2.104-2.777-4.221-7.389-4c-2.7,0.126-5.577,2.39-7.614,4.214
		c-4.369,3.931-6.978,8.465-9.079,13.932c-1.094,2.836-2.209,6.185,0.104,8.742c2.212,2.463,6.721,2.644,9.068,0.751
		c0.836-0.683,0.529-1.678,0.728-2.824c0,0.191,0.045,0.416,0,0.604"/>
	<path fill="#FFFFFF" d="M170.146,32.133c2.234,0.431,3.404,2.907,6.135,1.532c1.771-0.884,4.138-3.932,4.357-5.882
		c-3.661,1.663-7.231,8.549-8.07,12.235c-0.677,2.975,0.261,5.995,2.674,2.474c1.394-2.05,2.277-4.623,5.184-4.179
		c-1.531,2.489-1.796,4.713-4.31,6.8c-2.123,1.785-6.034,2.725-7.997,0.004c-1.833-2.533,0.06-7.012,1.091-9.464
		c1.387-3.291,3.312-5.105,5.928-7.514c1.755-1.612,4.093-3.809,6.577-2.752c3.367,1.44,1.151,4.52-0.339,6.324
		c-1.324,1.596-3.285,4.489-5.749,4.163c-1.217-0.176-5.096-2.695-5.688-3.741"/>
	<path fill="#FFFFFF" d="M184.394,41.781c0.09-1.217,2.932-2.291,4.345-1.704c1.862,4.312-4.783,7.227-7.582,4.321
		c-3.917-4.042-0.77-7.544,2.703-9.867c-0.726,0.473-1.453,0.83-2.117,1.464c1.49-2.09,6.429-4.714,8.742-2.571
		c0.24-2.408,2.723-5.884,4.146-7.864c0.775-1.068,1.721-2.231,3.127-2.416c2.583-0.326,2.189,0.882,1.596,2.424
		c-1.12,2.9-2.336,5.689-3.353,8.541c-0.451,1.254-3.774,7.625-1.345,7.415c3.064-4.88,5.584-9.894,9.074-14.594
		c1.913-2.601,3.847-5.934,7.165-6.63c3.887-0.814,5.399,2.354,3.249,5.204c-2.461,3.257-4.583,5.308-8.463,6.254
		c-0.081,0.089-0.078,0.092,0.01,0.009c2.061-2.224,4.81-5.502,5.222-8.537c-3.854,4.176-8.388,11.458-8.08,17.191
		c2.863,1.98,6.385-2.219,5.668-5.211c-0.339-1.398-2.193-1.965-1.041-3.457c1.03-1.327,3.224-0.735,4.16,0.327
		c4.363,4.962-5.636,12.317-10.131,11.658c-1.265-0.161-2.349-0.716-2.802-1.945c-0.658,2.654-6.42,2.847-8.173,1.355
		c-2.302-2.003-0.858-6.096-0.464-8.797c-1.9,0.861-8.353,4.787-5.875,7.647"/>
	<path fill="#FFFFFF" d="M225.113,22.533c-0.605,3.059-1.936,3.997-4.133,5.655l0.441-0.428c-0.192,0.054-0.208,0.375-0.619,0.177
		C220.821,26.47,223.755,22.677,225.113,22.533 M256.205,28.36c-2.159,1.959-3.074,4.685-6.039,6.017
		c-3.522,1.6-6.034-1.968-5.084-5.306c0.373-1.307,2.306-3.574,3.66-2.794c1.677,0.956-0.506,2.783-1.652,3.269
		c-1.038,1.964,1.423,2.268,2.81,1.719c1.262-0.517,2.211-1.953,2.896-3.021c1.983-3.097-0.742-5.563-4.263-5.479
		c-6.155,0.136-7.302,9.78-11.386,13.042c-0.514,0.426-1.285,0.692-1.883,0.903c0.109-1.903,1.147-4.374,2.203-6.104
		c1.094-1.79,2.99-4.196-0.49-4.38c-5.32-0.302-5.675,6.93-5.701,10.529c-0.318-0.744-1.856-0.938-2.81-0.272
		c0.567-2.661,3.165-6.054,4.143-8.725c-3.109-3.501-6.448,2.535-7.962,4.558c-1.716,2.276-3.32,5.814-6.484,6.149
		c-0.135-2.968,0.479-7.085,2.049-10.015c-0.119,0.321-0.219,0.663-0.299,1.012c2.893,0.208,5.491-2.07,7.146-4.378
		c1.762-2.452,2.697-6.851-1.714-6.321c-5.254,0.62-10.28,7.701-12.091,12.221c-1.122,2.851-1.941,6.751,0.998,8.754
		c3.138,2.152,6.454,0.5,8.257-1.935c-0.021,4.783,6.803,1.008,8.504,0.053c0.785,2.48,3.876,1.418,5.523,0.683
		c2.144-0.961,2.98-2.575,4.768-3.741c3.437,6.397,10.3,1.214,14.015-2.492c0.84-0.831,2.16-1.809,2.625-2.856
		C258.835,27.462,257.639,27.061,256.205,28.36"/>
	<path fill="#FFFFFF" d="M119.249,74.434c-0.252-2.556-0.505-3.693,1.009-6.742c0.884-1.808,4.313-6.705,0.833-7.73
		c-5.382-1.605-9.07,12.358-8.291,15.727c1.269,5.538,8.41,9.135,14.636,6.347c3.061-1.376,5.04-3.731,6.25-5.86
		c1.083-1.894-0.324-7.771-5.102-6.963c-0.533,0.108-1.012,0.577-1.397,0.83c1.994,2.453,2.049,6.092-0.793,7.953
		c-1.969,1.298-5.682,1.642-6.64-1.695C119.535,75.489,119.275,74.711,119.249,74.434"/>
	<path fill="#FFFFFF" d="M148.241,58.866c-3.249-2.736-8.507,8.813-6.529,9.598c3.323,1.354,3.814-5.217,4.383-6.853
		c0.221-0.639,0.185-0.5,0.36-0.949c0.498-1.188,1.522-2.262,2.842-1.985c0.984,1.788,1.387,5.335,4.149,2.582
		c1.496-1.473,1.815-4.138,2.942-5.865c0.849-0.147,1.783-0.025,2.561,0.213c-0.118,0.511-0.074,0.959-0.433,1.413
		c1.129-2.134,4.772-4.09,6.432-1.709c1.74,2.502-0.511,6.237-1.591,8.617c-0.443,1-0.958,2.647-1.959,3.233
		c-1.232,0.693-3.326,0.521-3.736-0.841c-0.824-2.655,3.2-5.639,3.29-8.253c-0.003,0.264-0.039,0.542-0.074,0.798
		c-0.755,0.269-1.541,0.312-2.288,0.02c-0.657,2.989-1.623,6.479-3.941,8.807c-1.106,1.126-3.223,2.273-4,0.173
		c-0.428-1.15,0.978-3.693,1.336-4.752c-0.814,1.024-1.853,0.543-2.159-0.506c-0.266,4.795-8.854,13.058-12.292,6.746
		c-0.848-1.571,0.196-6.388,2.218-8.904c1.421-1.773,4.952-5.506,7.406-3.31c0.576,0.502,0.716,0.638,1.125,1.233
		C148.629,58.858,148.241,58.866,148.241,58.866"/>
	<path fill="#FFFFFF" d="M166.86,56.686c0.263-0.56,1.039-0.828,1.485-0.357c1.333,1.424-1.836,4.861-1.913,6.927
		c-0.169,3.728,0.948,4.297,5.216,3.315c-0.61,1.312-3.074,8.292,0.914,7.651c2.591-0.419,3.829-5.528,4.344-7.176
		c0.84-2.651,1.536-5.713,2.669-8.527c0.648-1.643,1.728-2.785,1.753-4.306c0.031-1.894-1.612-2.11-3.126-0.888
		c-2.322,1.878-4.452,11.65-7.364,10.755c0.635-2.254,3.473-7.336,2.391-9.829c-1.369-3.108-8.072,1.39-6.797,2.656
		C166.51,56.982,166.815,56.783,166.86,56.686"/>
	<path fill="#FFFFFF" d="M184.615,54.255c0.839,1.102-1.149,5.388-2.022,6.743c-0.984,1.512-1.581,1.194-2.968,2.084
		c-0.933,0.605-2.466,2.214-1.295,3.458c1.612,1.705,5.641-1.352,7.125-2.147c2.298-1.274,4.431-2.419,6.338-4.178
		c0.85,2.443,3.781,3.254,5.888,2.503c0.508-0.184,2.526-0.978,2.662-2.149c0.186-1.509-2.225-1.183-2.963-0.627
		c-1.563-4.77,3.642-8.144,7.363-8.338c-0.918-5.655-7.681-0.853-9.607,1.452c-2.306,2.742-4.549,5.111-7.021,7.7
		c0.231-2.668,2.744-6.012,0.373-8.523c-1.996-2.129-8.682,0.334-6.65,2.875c0.718,0.903,1.983,0.459,2.559-0.631"/>
	<path fill="#FFFFFF" d="M209.812,57.983c-0.446,0.877-1.183,2.563-0.266,3.124c3.517,2.086,4.977-2.919,5.812-4.926
		c1.143-2.777,4.265-7.47,3.035-9.537c-1.528-2.583-4.144,3.772-6.339,5.922c-2.038,2.021-3.965,3.268-6.364,4.95
		c-0.389-3.007,3.026-5.153,2.953-8.552c-3.697-0.709-7.21,5.924-7.598,8.576c-0.35,2.412,0.958,4.268,3.285,4.389
		c2.314,0.152,3.481-1.631,4.818-3.504"/>
	<path fill="#FFFFFF" d="M220.327,50.117c-1.134,1.583-5.573,7.403-1.354,9.57c2.378,1.202,7.233-0.918,8.352-4.888
		c2.082,3.185,4.666,3.641,7.871,1.702c-0.935,2.559-5.493,7.735-8.271,8.021c0.121-1.24,3.694-3.857,4.97-3.947
		c-0.021-2.955-8.008,1.692-8.277,3.563c-0.315,2.115,1.759,3.037,3.238,3.285c2.049,0.328,3.603-0.353,5.405-1.358
		c2.481-1.393,4.631-3.235,6.083-5.818c0.618-1.092,0.81-3.36,1.742-4.179c1.182-1.008,2.988-0.237,4.287-1.196
		c1.332-0.987,5.063-6.2,2.687-6.967c-3.409-1.12-3.396,6.176-5.956,5.886c0.073-2.688,1.539-5.868,2.404-8.154
		c0.692-1.804-0.691-4.044-2.548-1.08c-2.674,4.226-2.493,9.983-8.622,10.771c0.429-2.647,1.739-5.398,3.215-7.548
		c0.564-0.845,2.192-3.18,0.549-3.821c-0.983-0.364-3.175,0.883-3.839,1.485c-2.181,1.931-2.587,3.647-4.542,5.917
		c-1.531,1.746-3.439,3.825-5.387,5.01c0.041-3.352,4.46-7.956,2.359-10.15c-1.263-1.336-7.206,1.15-5.781,3.497
		c0.355,0.569,1.299,0.752,1.849,0.622L220.327,50.117z"/>
	<path fill="#FFFFFF" d="M63.927,39.086c0.149,0.063,0.306,0.147,0.458,0.312c0.106,0.215,0.064,0.382-0.114,0.56
		c-0.017,0.183,0.017,0.362,0.114,0.515c-0.123,0.188-0.203,0.403-0.229,0.644c-0.164-0.096-0.354-0.191-0.575-0.232
		c-0.192-1.105-0.721-1.319-1.601-0.643c-0.328,0.462-0.485,1.038-0.453,1.696l0.112-0.131c-0.056,0.453,0.114,0.769,0.519,0.976
		l0.052,0.359c0.283,0.051,0.622,0.067,1.028,0.051l0.516-0.822c-0.012-0.101,0.032-0.201,0.115-0.332l0.113-0.1
		c0.541,0.109,0.693,0.507,0.457,1.127c-0.275,0.155-0.521,0.385-0.741,0.691c-0.212,0.089-0.459,0.123-0.741,0.132
		c-0.062,0-0.116,0.017-0.176,0.05c-0.198-0.033-0.447-0.05-0.738-0.05c-0.072-0.182-0.186-0.317-0.343-0.464l-0.059-0.131
		c-0.654-0.743-0.806-1.648-0.456-2.69c0.127-1.123,0.965-1.567,2.514-1.336L63.927,39.086z"/>
	<path fill="#FFFFFF" d="M68.237,40.36h0.11c0.243,0.072,0.528,0.226,0.862,0.438l0.106,0.047c-0.015,0.161,0.018,0.29,0.112,0.438
		c-0.112,0.218-0.273,0.421-0.487,0.578c-0.294-0.055-0.452-0.257-0.489-0.578c-0.831,0.111-1.118,0.656-0.866,1.547
		c0.271,0.093,0.527,0.093,0.763,0c-0.044,0.158-0.044,0.328,0,0.517c-0.034,0.125-0.086,0.296-0.171,0.482
		c-0.195-0.023-0.409,0.008-0.642,0.096h-0.17c-0.377-0.171-0.812-0.22-1.299-0.172l-0.216-0.219c0.043-0.125,0.06-0.298,0.06-0.485
		l0.217-0.097c0.216-0.008,0.431-0.038,0.645-0.122v-1.235c0.008-0.032-0.008-0.064-0.049-0.095v-0.217
		c-0.412,0.007-0.663-0.195-0.763-0.61c0.411-0.314,0.928-0.314,1.577,0C67.727,40.619,67.961,40.494,68.237,40.36"/>
	<path fill="#FFFFFF" d="M72.546,42.458c-0.055,0.065-0.131,0.13-0.228,0.226C72.629,42.78,72.708,42.715,72.546,42.458
		 M71.924,42.682c-0.136,0.053-0.248,0.149-0.336,0.324C72.303,43.043,72.415,42.946,71.924,42.682 M71.699,40.372l1.015,0.048
		l0.165,0.05l0.402,0.078h0.162c0.374,0.611,0.452,1.322,0.224,2.136l0.174,0.272c0.443-0.031,0.668,0.195,0.668,0.681l-0.225,0.276
		c-0.233-0.093-0.493-0.171-0.778-0.179l-0.114-0.226h-0.339c-0.651,0.588-1.397,0.571-2.248-0.051c0.054-0.322,0.054-0.709,0-1.13
		c0.139-0.122,0.322-0.284,0.557-0.453v-0.226C70.74,41.272,70.854,40.835,71.699,40.372"/>
	<path fill="#FFFFFF" d="M77.671,39.059h0.177h0.117c0.41,0.033,0.754,0.263,1.021,0.688c0.012,0.188-0.012,0.416-0.057,0.686
		c-0.608-0.074-0.875,0.155-0.802,0.688c-0.861-0.016-1.107,0.424-0.737,1.326l-0.063,0.506c0.449,0,0.758,0.196,0.917,0.559
		l-0.168,0.231l-1.258,0.127l-0.399,0.051h-0.227l-0.406-0.103c-0.05-0.161-0.095-0.356-0.113-0.587
		c0.29-0.169,0.632-0.234,1.029-0.228c-0.007-0.305,0.01-0.696,0.059-1.146v-0.148l-0.115-0.358
		c-0.593-0.019-0.933-0.181-1.024-0.46c0.082-0.074,0.156-0.202,0.229-0.328c0.568,0,0.932-0.458,1.081-1.376
		C77.143,39.187,77.39,39.155,77.671,39.059"/>
	<path fill="#FFFFFF" d="M81.533,39.082c0.305,0.057,0.421,0.191,0.35,0.466c0.296,0.172,0.331,0.439,0.116,0.827l0.116,0.185
		c0.274-0.065,0.6-0.133,0.994-0.234c0.105,0.206,0.277,0.36,0.518,0.517c-0.15,0.423-0.465,0.56-0.932,0.466
		c-0.178,0.11-0.391,0.173-0.632,0.102c-0.055,0.233-0.055,0.529,0,0.83c-0.055,0.197-0.055,0.43,0,0.697v0.231
		c0.482-0.008,0.813-0.257,0.983-0.748c0.563,0.051,0.713,0.317,0.466,0.799c-0.35,0.646-0.932,0.862-1.743,0.646l-0.351-0.281
		l-0.116-0.366v-0.411l-0.171-0.466c0.034-0.103,0.053-0.27,0.053-0.466l0.183-0.052l-0.116-0.515
		c-0.485,0.077-0.782-0.105-0.879-0.517c0.197-0.304,0.448-0.388,0.759-0.314C81.06,39.958,81.194,39.496,81.533,39.082"/>
	<path fill="#FFFFFF" d="M87.419,42.434c-0.219,0.12-0.484,0.167-0.776,0.144c0,0.294,0.129,0.425,0.387,0.449
		C87.773,42.747,87.904,42.539,87.419,42.434 M86.757,41.266c-0.361,0.24-0.424,0.387-0.174,0.495
		c0.19,0.274,0.466,0.211,0.836-0.223C87.287,41.34,87.067,41.258,86.757,41.266 M86.697,40.372c0.736,0,1.251,0.338,1.557,1.042
		c0.302,0.374,0.271,0.712-0.107,1.07c0.342,0.505,0.299,0.854-0.112,0.992v0.172c-0.533,0.267-1.125,0.332-1.783,0.228V43.7
		c-0.422-0.306-0.68-0.77-0.773-1.393l-0.172-0.224c0.163-0.849,0.584-1.389,1.275-1.536C86.592,40.478,86.636,40.428,86.697,40.372
		"/>
	<path fill="#FFFFFF" d="M91.5,42.409h0.171C91.586,42.56,91.531,42.56,91.5,42.409 M91.94,41.795
		c-0.184,0.164-0.419,0.212-0.709,0.174l-0.054,0.143c-0.117,0.094-0.248,0.188-0.385,0.346l0.385,0.143
		c-0.128,0.158-0.147,0.328-0.055,0.518c0.733,0.081,0.97-0.155,0.709-0.708l0.057-0.171C92.37,42.284,92.387,42.126,91.94,41.795
		 M91.72,39.059c0.261,0.085,0.589,0.117,0.985,0.124c0.037,0.188,0.13,0.331,0.273,0.487l-0.061,1.102v0.412l0.061,0.125
		c-0.048,0.219-0.068,0.471-0.061,0.754c-0.094,0.174-0.137,0.36-0.105,0.535l0.105,0.173l-0.105,0.269
		c0.175-0.007,0.317,0.07,0.434,0.173c0.172,0.14,0.206,0.283,0.111,0.488l-0.269,0.126c-0.481-0.197-0.976-0.164-1.48,0.096
		l-0.818-0.269h-0.159c-0.124-0.276-0.234-0.638-0.33-1.054l-0.11-0.048c0-0.045-0.017-0.094-0.049-0.143l0.049-0.171l-0.11-0.175
		l0.11-0.361c0.085-0.189,0.135-0.409,0.167-0.66c0.117-0.092,0.204-0.189,0.272-0.345c0.135-0.018,0.26-0.082,0.378-0.222
		c0.167,0.164,0.363,0.164,0.598,0c0.16,0.148,0.372,0.229,0.661,0.297c0.041-0.425-0.137-0.629-0.55-0.612
		c-0.025-0.063-0.083-0.142-0.16-0.173C91.217,39.665,91.265,39.335,91.72,39.059"/>
	<path fill="#FFFFFF" d="M74.59,46.953c0.153,0.127,0.365,0.188,0.625,0.211l-0.104,0.309c0.285,0.371,0.193,0.629-0.263,0.805
		c0.017,0.121,0.089,0.243,0.214,0.305l0.048,1.065l-0.048,0.136l0.048,0.124v0.211l-0.048,0.138v0.216l0.048,0.166l0.208-0.049
		c0.254,0.237,0.522,0.268,0.792,0.093c0.107,0.13,0.192,0.252,0.258,0.429l0.107,0.044l-0.209,0.52
		c-0.334,0.084-0.733,0.096-1.204,0.074l-0.155,0.092c-0.406-0.091-0.911-0.166-1.522-0.166h-0.163
		c-0.092-0.207-0.116-0.448-0.049-0.731c0.098-0.037,0.181-0.097,0.258-0.211c0.416,0.213,0.725,0.136,0.943-0.258
		c-0.098-0.245-0.128-0.521-0.104-0.825l-0.209-0.379c-0.274,0.016-0.567-0.017-0.89-0.092c-0.074-0.57,0.229-0.875,0.89-0.973
		C73.906,47.723,74.087,47.326,74.59,46.953"/>
	<path fill="#FFFFFF" d="M78.622,48.252c0.25,0.079,0.54,0.235,0.877,0.412c0.268-0.048,0.581-0.144,0.926-0.314l0.32,0.048
		c0.4,0.478,0.544,1.072,0.434,1.755c-0.033,0.196-0.033,0.386,0,0.658l0.438,0.047c0.041,0.214,0.041,0.448,0,0.707v0.142
		c-0.538,0.147-1.077,0.147-1.634,0c-0.076-0.362-0.016-0.768,0.16-1.189c0.06,0.163,0.17,0.243,0.33,0.292
		c-0.018-0.125,0.016-0.218,0.109-0.34c-0.061-0.229-0.212-0.402-0.438-0.49l-0.105-0.313l-0.054-0.126l-0.052-0.171
		c-0.108,0.084-0.259,0.115-0.434,0.124l0.217,0.173c-0.598,0.378-0.641,0.849-0.11,1.411c-0.059,0.135-0.092,0.323-0.107,0.532
		c-0.532,0.214-1.036,0.091-1.524-0.313l0.111-0.22c0.52-0.196,0.689-0.555,0.486-1.051c0.288-0.502,0.144-0.8-0.438-0.925v-0.438
		C78.212,48.481,78.369,48.325,78.622,48.252"/>
	<path fill="#FFFFFF" d="M64.334,54.875c0.561,0.165,1.212,0.182,1.94,0.047l0.109,0.049h0.164l0.221,0.128
		c0,0.174-0.034,0.337-0.109,0.542c-0.332-0.065-0.704-0.032-1.103,0.127c-0.112,0.438-0.096,0.914,0.05,1.435
		c-0.119,0.435-0.154,0.929-0.112,1.479l-0.05,0.128h0.883l0.441,0.046v0.542c-0.452,0.12-0.965,0.137-1.547,0.08l-0.162,0.144
		c-0.205,0.078-0.409,0.016-0.615-0.096h-0.438l-0.058,0.096c-0.024-0.057-0.083-0.104-0.162-0.144
		c-0.151-0.629,0.178-0.852,0.989-0.668c0.27-0.521,0.292-1.074,0.064-1.607c0.126-0.272,0.109-0.544-0.064-0.846
		c0.071-0.215,0.054-0.407-0.049-0.638c-0.327,0.057-0.693,0.04-1.114-0.078C63.572,55.256,63.811,54.972,64.334,54.875"/>
	<path fill="#FFFFFF" d="M69.893,58.173c0.125-0.006,0.265,0.006,0.424,0.036h0.116c0.325,0.549,0.252,1.014-0.234,1.393v0.13
		c-0.471,0.047-0.79-0.164-0.968-0.63l0.157-0.163C69.432,58.649,69.595,58.394,69.893,58.173"/>
	<path fill="#FFFFFF" d="M76.63,56.808c0.202,0.226,0.238,0.55,0.118,0.919h-0.294c0.08-0.183,0.055-0.324-0.066-0.486L76.63,56.808
		z M76.693,57.913H76.63H76.693c0.473,1.399,0.288,1.886-0.546,1.454c0.035-0.322-0.027-0.699-0.174-1.074
		c0.37,0.157,0.525,0.087,0.483-0.244l0.177-0.136H76.693z M75.905,54.869h0.788h0.177h0.491c0.098,0.379-0.082,0.522-0.547,0.487
		c0.084,0.992-0.083,1.3-0.479,0.859c0.017-0.214,0.078-0.438,0.176-0.673c-0.121,0.018-0.241,0.071-0.364,0.19
		c-0.065-0.228-0.212-0.398-0.417-0.487L75.905,54.869z M75.486,57.24h0.243c0.01,0.243,0.148,0.396,0.417,0.433
		c-0.089,0.177-0.251,0.267-0.482,0.297C75.663,57.707,75.605,57.465,75.486,57.24 M75.413,56.457
		c0.35,0.607,0.27,0.738-0.233,0.338L75.413,56.457z M75.179,56.079c0.17,0.036,0.215,0.154,0.122,0.297L75.179,56.079z
		 M74.269,57.133h-0.054H74.269c0.232,0.483,0.298,1.04,0.188,1.695c0.397,0.081,0.64,0.287,0.724,0.621
		c-0.121,0.036-0.279,0.107-0.482,0.243c-0.307-0.075-0.667-0.075-1.086,0h-0.185c-0.01-0.101-0.047-0.153-0.121-0.188
		c0.073-0.155,0.073-0.278,0-0.434c0.206-0.043,0.427-0.06,0.667-0.052c-0.011-0.225,0.046-0.45,0.175-0.674
		c-0.174-0.198-0.155-0.406,0.067-0.62c-0.155-0.182-0.155-0.358,0-0.592H74.269L74.269,57.133z M73.734,54.816
		c0.276-0.024,0.601,0.01,0.964,0.105h0.177c-0.029,0.289,0.093,0.514,0.366,0.677c-0.218,0.285-0.303,0.664-0.243,1.102
		c-0.198-0.042-0.366,0.03-0.488,0.244l-0.361,0.053c0.12-1.122-0.175-1.678-0.903-1.694C73.221,55.022,73.39,54.854,73.734,54.816"
		/>
	<path fill="#FFFFFF" d="M79.497,58.173c0.127-0.006,0.268,0.006,0.423,0.036h0.116c0.327,0.549,0.253,1.014-0.234,1.393v0.13
		c-0.471,0.047-0.788-0.164-0.967-0.63l0.158-0.163C79.038,58.649,79.201,58.394,79.497,58.173"/>
	<path fill="#FFFFFF" d="M85.214,58.601c0.122,0.189,0.24,0.189,0.359,0H85.214z M84.611,56.982l-0.057,0.187h0.418
		c0.035,0.267,0.088,0.3,0.177,0.103c0.032-0.06,0.032-0.128,0-0.239C84.946,57.052,84.772,57.036,84.611,56.982 M84.492,54.836
		c0.65,0.016,0.924,0.423,0.843,1.193c0.103,0.05,0.162,0.166,0.173,0.29c-0.091,0.044-0.164,0.14-0.24,0.237h0.359
		c0.023,0.416,0.145,0.84,0.359,1.275l0.118,0.821c0.449,0.006,0.729,0.225,0.837,0.661c-0.44,0.468-1.081,0.5-1.91,0.134
		c0-0.176,0.038-0.345,0.119-0.507c-0.042-0.091-0.042-0.192,0-0.342v-0.188c-0.165,0.011-0.33,0.062-0.476,0.188h-0.359
		l-0.184,0.054c0.508-0.009,0.747,0.213,0.724,0.661c-0.564,0.402-1.284,0.402-2.157,0c0.106-0.294,0.345-0.462,0.718-0.478
		c0.328-0.639,0.51-1.39,0.542-2.282c0.154-0.192,0.22-0.432,0.176-0.715c0.164-0.261,0.239-0.568,0.242-0.952
		C84.415,54.896,84.45,54.876,84.492,54.836"/>
	<path fill="#FFFFFF" d="M89.093,58.173c0.126-0.006,0.266,0.006,0.419,0.036h0.115c0.33,0.549,0.251,1.014-0.233,1.393v0.13
		c-0.47,0.047-0.789-0.164-0.963-0.63l0.151-0.163C88.633,58.649,88.795,58.394,89.093,58.173"/>
	<path fill="#FFFFFF" d="M276.979,39.409c-0.323,0.344-0.553,0.785-0.684,1.301c0.825,0.611,1.255,0.629,1.265,0.083
		c0.479,0.043,0.372-0.232-0.346-0.854l0.115-0.479C277.211,39.511,277.096,39.496,276.979,39.409 M276.913,41.748
		c-0.366,0.053-0.53,0.292-0.462,0.717l-0.231,0.426c0.652,0.515,0.918,0.618,0.824,0.344l0.103-0.236
		c0.464-0.124,0.557-0.312,0.232-0.533l0.064-0.373c0.262,0.349,0.314,0.212,0.167-0.344H276.913z M276.169,39.086
		c0.53,0.205,1.157,0.224,1.854,0.082c0.23,0.086,0.497,0.122,0.796,0.104c0.097,0.221,0.146,0.479,0.18,0.798
		c-0.208-0.037-0.438,0.046-0.694,0.158c0.018,0.196,0.131,0.348,0.284,0.426v0.48c-0.284,0.237-0.316,0.53-0.104,0.902
		c0,0.488,0.182,0.969,0.514,1.437l-0.05,0.428c-0.147-0.135-0.265-0.088-0.411,0.053c-0.301-0.097-0.637-0.116-0.977-0.053
		c-0.147-0.151-0.319-0.204-0.578-0.187l-0.23,0.187c-0.071-0.098-0.155-0.177-0.302-0.187v0.239c-0.222,0-0.454,0.081-0.694,0.187
		c-0.034-0.258-0.18-0.311-0.464-0.187c-0.024-0.071-0.075-0.143-0.152-0.239c0.035-0.345,0.25-0.584,0.616-0.717
		c-0.042-0.311-0.024-0.686,0.076-1.063c-0.028-0.145-0.076-0.295-0.127-0.427l0.179-0.426c-0.063-0.17-0.136-0.391-0.179-0.665
		l0.127-0.236l-0.127-0.241c-0.114-0.053-0.257-0.053-0.413,0l-0.051-0.612C275.541,39.399,275.868,39.3,276.169,39.086"/>
	<path fill="#FFFFFF" d="M281.867,42.458c-0.049,0.065-0.114,0.13-0.228,0.226C281.971,42.78,282.036,42.715,281.867,42.458
		 M281.267,42.682c-0.149,0.053-0.249,0.149-0.354,0.324C281.627,43.043,281.753,42.946,281.267,42.682 M281.04,40.372l1.002,0.048
		l0.176,0.05l0.399,0.078h0.151c0.387,0.611,0.455,1.322,0.227,2.136l0.177,0.272c0.451-0.031,0.68,0.195,0.68,0.681l-0.228,0.276
		c-0.232-0.093-0.489-0.171-0.791-0.179l-0.111-0.226h-0.331c-0.649,0.588-1.396,0.571-2.259-0.051c0.053-0.322,0.053-0.709,0-1.13
		c0.147-0.122,0.317-0.284,0.551-0.453v-0.226C280.083,41.272,280.181,40.835,281.04,40.372"/>
	<path fill="#FFFFFF" d="M287.237,40.36h0.126c0.24,0.072,0.524,0.226,0.854,0.438l0.112,0.047c-0.016,0.161,0.019,0.29,0.098,0.438
		c-0.098,0.218-0.268,0.421-0.487,0.578c-0.282-0.055-0.45-0.257-0.485-0.578c-0.813,0.111-1.119,0.656-0.851,1.547
		c0.271,0.093,0.523,0.093,0.76,0c-0.037,0.158-0.037,0.328,0,0.517c-0.025,0.125-0.099,0.296-0.174,0.482
		c-0.204-0.023-0.421,0.008-0.655,0.096h-0.146c-0.386-0.171-0.825-0.22-1.31-0.172l-0.218-0.219c0.032-0.125,0.05-0.297,0.05-0.484
		l0.216-0.097c0.22-0.007,0.44-0.038,0.657-0.123v-1.234c0.008-0.031-0.009-0.063-0.048-0.095v-0.217
		c-0.415,0.008-0.664-0.195-0.754-0.611c0.386-0.314,0.929-0.314,1.552,0C286.736,40.619,286.971,40.494,287.237,40.36"/>
	<path fill="#FFFFFF" d="M291.154,42.409h0.172C291.225,42.56,291.179,42.56,291.154,42.409 M291.594,41.795
		c-0.188,0.164-0.423,0.212-0.708,0.174l-0.05,0.143c-0.129,0.094-0.248,0.188-0.392,0.346l0.392,0.143
		c-0.136,0.158-0.153,0.328-0.075,0.518c0.745,0.081,0.984-0.155,0.711-0.708l0.072-0.171
		C292.027,42.284,292.043,42.126,291.594,41.795 M291.375,39.059c0.259,0.085,0.58,0.117,0.976,0.124
		c0.031,0.188,0.14,0.331,0.268,0.487l-0.048,1.102v0.412l0.048,0.125c-0.039,0.219-0.055,0.471-0.048,0.754
		c-0.091,0.174-0.142,0.36-0.1,0.535l0.1,0.173l-0.1,0.269c0.156-0.007,0.312,0.07,0.419,0.173c0.169,0.14,0.203,0.283,0.122,0.488
		l-0.268,0.126c-0.481-0.197-0.971-0.164-1.491,0.096l-0.809-0.269h-0.173c-0.109-0.276-0.235-0.638-0.315-1.054l-0.123-0.048
		c0-0.045-0.019-0.094-0.049-0.143l0.049-0.171l-0.099-0.175l0.099-0.361c0.099-0.189,0.146-0.409,0.172-0.66
		c0.13-0.092,0.211-0.189,0.267-0.345c0.149-0.018,0.262-0.082,0.393-0.222c0.171,0.164,0.354,0.164,0.587,0
		c0.161,0.148,0.382,0.229,0.658,0.297c0.041-0.425-0.121-0.629-0.536-0.612c-0.023-0.063-0.078-0.142-0.173-0.173
		C290.871,39.665,290.919,39.335,291.375,39.059"/>
	<path fill="#FFFFFF" d="M278.3,48.538c-0.351,0.756-0.47,1.604-0.305,2.518l0.444-0.139v-2.183L278.3,48.538z M276.17,49.035
		c0.073,0.427,0.073,0.943,0,1.579l0.305,0.498l0.081,0.111l0.438-0.059c-0.02-0.471-0.142-0.793-0.381-0.996
		c-0.036-0.202-0.138-0.413-0.247-0.637C276.346,49.359,276.277,49.212,276.17,49.035 M275.615,46.962l0.998,0.443
		c0.019,0.213,0.019,0.461,0,0.748c0.185,0.322,0.331,0.699,0.496,1.188l-0.054,0.249l0.358,0.192
		c0.13-0.284,0.147-0.606,0.085-0.995c0.181-0.167,0.285-0.396,0.303-0.69l0.056-0.388l0.083-0.252l0.057-0.191
		c0.435-0.144,0.896-0.144,1.385,0c-0.055,0.193-0.185,0.352-0.388,0.443c0.054,0.525,0.018,1.06-0.112,1.632v0.192v0.196v0.248
		c0.086,0.214,0.122,0.443,0.112,0.691v0.249l0.31,0.248l0.133,0.059v0.581c-0.268-0.156-0.587-0.175-0.94-0.056
		c-0.24,0.028-0.49-0.057-0.746-0.192c-0.187,0.055-0.381,0.071-0.583,0.055l-0.436,0.138h-0.176l-0.136-0.084l-0.498,0.138
		l-0.194-0.056l-0.442-0.138c-0.028-0.306,0.129-0.533,0.442-0.692c-0.028-0.275-0.028-0.663,0-1.136l-0.109-0.689
		c0.073-0.249,0.091-0.533,0.055-0.856l-0.055-0.196l0.055-0.329c-0.138-0.14-0.283-0.261-0.496-0.305
		C275.246,47.237,275.405,47.111,275.615,46.962"/>
	<path fill="#FFFFFF" d="M281.899,50.352c-0.062,0.064-0.127,0.133-0.219,0.226C281.988,50.674,282.055,50.608,281.899,50.352
		 M281.284,50.577c-0.149,0.051-0.246,0.148-0.354,0.323C281.652,50.938,281.771,50.84,281.284,50.577 M281.058,48.266l1.002,0.047
		l0.178,0.05l0.405,0.05h0.146c0.386,0.64,0.451,1.351,0.225,2.165l0.179,0.272c0.45-0.03,0.676,0.196,0.676,0.681l-0.225,0.276
		c-0.232-0.121-0.492-0.171-0.777-0.178l-0.126-0.225h-0.329c-0.652,0.59-1.396,0.571-2.26-0.051c0.053-0.354,0.053-0.71,0-1.129
		c0.152-0.154,0.32-0.284,0.553-0.456v-0.225C280.102,49.137,280.2,48.729,281.058,48.266"/>
	<path fill="#FFFFFF" d="M286.33,50.273h0.169C286.427,50.453,286.375,50.453,286.33,50.273 M286.766,49.689
		c-0.167,0.136-0.407,0.214-0.709,0.143l-0.047,0.174c-0.109,0.063-0.243,0.188-0.392,0.346l0.392,0.144
		c-0.125,0.155-0.153,0.326-0.048,0.486c0.731,0.111,0.968-0.126,0.707-0.708l0.049-0.144
		C287.198,50.179,287.214,50.021,286.766,49.689 M286.546,46.953c0.27,0.058,0.603,0.12,1.001,0.125
		c0.035,0.159,0.115,0.333,0.271,0.488l-0.065,1.071v0.44l0.065,0.126c-0.049,0.219-0.08,0.472-0.065,0.756
		c-0.1,0.17-0.133,0.33-0.107,0.536l0.107,0.172l-0.107,0.268c0.181-0.009,0.31,0.04,0.44,0.173
		c0.171,0.109,0.206,0.283,0.096,0.487l-0.268,0.097c-0.48-0.166-0.968-0.136-1.466,0.125l-0.832-0.268h-0.145
		c-0.139-0.275-0.235-0.639-0.345-1.052l-0.098-0.05c0-0.046-0.014-0.095-0.05-0.173l0.05-0.144l-0.123-0.172l0.123-0.394
		c0.071-0.157,0.122-0.379,0.168-0.659c0.109-0.063,0.192-0.159,0.274-0.315c0.12-0.018,0.26-0.082,0.363-0.22
		c0.174,0.164,0.377,0.164,0.612,0c0.158,0.148,0.368,0.228,0.66,0.267c0.04-0.396-0.149-0.601-0.563-0.583
		c-0.025-0.092-0.071-0.138-0.144-0.171C286.042,47.558,286.093,47.228,286.546,46.953"/>
	<path fill="#FFFFFF" d="M291.932,50.298c-0.222,0.148-0.481,0.198-0.77,0.174c0,0.266,0.14,0.424,0.4,0.447
		C292.297,50.64,292.412,50.432,291.932,50.298 M291.274,49.13c-0.36,0.242-0.408,0.416-0.159,0.526
		c0.188,0.272,0.464,0.179,0.817-0.222C291.818,49.233,291.593,49.124,291.274,49.13 M291.21,48.266c0.73,0,1.269,0.338,1.565,1.04
		c0.297,0.375,0.266,0.713-0.122,1.07c0.355,0.506,0.323,0.827-0.102,0.994v0.172c-0.519,0.267-1.124,0.333-1.791,0.226v-0.175
		c-0.408-0.303-0.681-0.769-0.766-1.389l-0.176-0.224c0.169-0.879,0.6-1.392,1.295-1.566
		C291.119,48.37,291.154,48.321,291.21,48.266"/>
	<path fill="#FFFFFF" d="M271.184,59.15c-0.109,0.33-0.021,0.348,0.201,0.086L271.184,59.15z M269.788,55.18
		c0.061,0.31,0.143,0.328,0.259,0.085L269.788,55.18z M269.788,58.699l-0.261,0.199C270.272,59.132,270.348,59.076,269.788,58.699
		 M269.179,55.32l-0.062,0.508c-0.242-0.075-0.326,0-0.261,0.256c-0.173,0.373-0.173,0.739,0,1.152
		c-0.231,0.413-0.155,0.628,0.261,0.646l-0.059,0.256c0.282-0.209,0.621-0.303,1.046-0.313l0.263,0.313
		c0.598,0.243,0.841-0.17,0.728-1.211c0.133-0.985-0.273-1.42-1.195-1.296C269.72,55.5,269.462,55.376,269.179,55.32
		 M270.048,54.365l0.136,0.308h0.45c1.031,0.741,1.371,1.748,1.07,2.958c0.126,0.147,0.194,0.363,0.203,0.646
		c-0.307,0.111-0.483,0.366-0.524,0.762c0.165,0.045,0.369,0.119,0.584,0.252l0.144,0.056c0.038,0.574-0.144,1.102-0.551,1.607
		l-0.322-0.059c-0.669-0.045-1.007-0.421-1.058-1.097c-1.207-0.218-1.933-0.94-2.194-2.168c-0.02-0.225,0.019-0.46,0.145-0.705
		c-0.074-0.15-0.074-0.329,0-0.507l0.06-0.392v-0.256l0.057-0.197l0.351-0.057c0.01-0.313,0.181-0.461,0.521-0.507
		c0.174-0.32,0.456-0.412,0.875-0.338L270.048,54.365z"/>
	<path fill="#FFFFFF" d="M275.36,56.125h-0.074h0.127H275.36h0.101h-0.048h0.095h-0.047h0.117h-0.07h0.07l0.551,0.224
		c-0.02,0.153-0.005,0.313,0.049,0.445c-0.044,0.242-0.061,0.56-0.049,0.889v0.174v0.146l-0.05,0.222
		c-0.018,0.067-0.071,0.099-0.126,0.128v0.174v0.146l0.558,0.123c0.02,0.199,0.087,0.376,0.21,0.594
		c-0.511,0.317-1.052,0.238-1.655-0.146c-0.161,0.209-0.401,0.336-0.718,0.446l-0.813-0.572c0.081-0.281,0.063-0.6-0.06-0.986
		l0.153-0.047l-0.153-0.129c0.088-0.261,0.105-0.564,0.06-0.938l-0.669-0.271l0.047-0.396c0.46-0.117,0.955-0.102,1.505,0.076
		c-0.23,0.146-0.178,0.319,0.151,0.494h-0.049h0.049h-0.098h0.049h-0.103h0.054h-0.054c-0.182,0.376-0.292,0.854-0.294,1.433
		c0.097,0.497,0.432,0.513,1.063,0.048c-0.02-0.234,0.045-0.455,0.225-0.668c-0.074-0.076-0.186-0.108-0.348-0.097
		c-0.058-0.193-0.21-0.353-0.435-0.446c0.044-0.665,0.301-0.969,0.782-0.94l-0.127-0.125h0.076V56.125z"/>
	<path fill="#FFFFFF" d="M279.538,58.217c-0.053,0.094-0.119,0.161-0.22,0.226C279.635,58.568,279.701,58.473,279.538,58.217
		 M278.932,58.442c-0.149,0.083-0.248,0.178-0.354,0.354C279.293,58.832,279.418,58.703,278.932,58.442 M278.704,56.129l1.003,0.079
		l0.176,0.05l0.402,0.047h0.149c0.388,0.643,0.453,1.354,0.226,2.138l0.178,0.302c0.451-0.062,0.677,0.165,0.677,0.651l-0.225,0.306
		c-0.233-0.122-0.49-0.171-0.78-0.178l-0.123-0.226h-0.33c-0.651,0.56-1.394,0.542-2.259-0.05c0.052-0.354,0.052-0.711,0-1.13
		c0.149-0.151,0.316-0.284,0.551-0.453v-0.226C277.749,57.03,277.848,56.595,278.704,56.129"/>
	<path fill="#FFFFFF" d="M283.488,54.869c0.402-0.023,0.838,0.073,1.309,0.323c-0.052,0.289-0.052,0.566,0,0.859
		c-0.034,0.128-0.052,0.259-0.052,0.452l-0.127,0.101v0.228v0.176l-0.048,0.226v0.631v0.602c0.007,0.071,0.007,0.138,0,0.229
		l0.048,0.225l0.354-0.099c0.27,0.083,0.577,0.115,0.957,0.099c0.033,0.16,0.033,0.336,0,0.531c-0.52,0.268-1.117,0.317-1.813,0.148
		c-0.479,0.161-0.979,0.111-1.533-0.148c0.061-0.219,0.174-0.43,0.4-0.63c0.322,0.099,0.632,0.099,0.907,0
		c0.041-0.243,0.041-0.534,0-0.906c0-0.136,0.016-0.268,0.048-0.454l-0.099-0.323V56.96c0.017-0.177,0.017-0.405,0-0.683
		l0.051-0.225l-0.051-0.226c-0.243-0.033-0.534-0.033-0.856,0l-0.4-0.051c0-0.049-0.02-0.127-0.055-0.178
		C282.49,55.079,282.8,54.836,283.488,54.869"/>
	<path fill="#FFFFFF" d="M288.785,54.848c0.157,0.099,0.353,0.189,0.633,0.212l-0.116,0.307c0.273,0.37,0.198,0.63-0.259,0.776
		c0.016,0.15,0.076,0.272,0.214,0.331l0.045,1.036l-0.045,0.169l0.045,0.091v0.214l-0.045,0.165v0.215l0.045,0.168l0.213-0.079
		c0.252,0.237,0.511,0.299,0.776,0.124c0.122,0.099,0.198,0.251,0.263,0.425l0.118,0.046l-0.213,0.52
		c-0.323,0.054-0.731,0.067-1.202,0.043l-0.167,0.123c-0.396-0.121-0.913-0.166-1.507-0.166h-0.167
		c-0.087-0.205-0.105-0.448-0.048-0.73c0.084-0.039,0.188-0.128,0.258-0.214c0.418,0.215,0.725,0.138,0.943-0.258
		c-0.092-0.245-0.142-0.519-0.1-0.853l-0.206-0.349c-0.288,0.016-0.583-0.016-0.896-0.123c-0.072-0.54,0.229-0.845,0.896-0.942
		C288.102,55.616,288.284,55.19,288.785,54.848"/>
	<path fill="#FFFFFF" d="M293.319,54.869c0.312,0.026,0.424,0.19,0.365,0.466c0.283,0.172,0.316,0.439,0.103,0.798l0.13,0.184
		c0.267-0.035,0.585-0.104,0.982-0.233c0.095,0.208,0.275,0.389,0.515,0.517c-0.142,0.423-0.463,0.589-0.93,0.466
		c-0.185,0.141-0.387,0.173-0.63,0.131c-0.06,0.233-0.06,0.499,0,0.8c-0.06,0.198-0.06,0.432,0,0.697v0.231
		c0.488-0.008,0.813-0.256,0.995-0.748c0.549,0.053,0.714,0.347,0.465,0.828c-0.363,0.618-0.93,0.834-1.76,0.617l-0.335-0.283
		l-0.132-0.334v-0.413l-0.163-0.464c0.043-0.132,0.061-0.27,0.061-0.465l0.175-0.053l-0.121-0.544
		c-0.484,0.104-0.768-0.077-0.881-0.517c0.198-0.275,0.449-0.36,0.767-0.285C292.845,55.747,292.993,55.284,293.319,54.869"/>
	<path fill="#FFFFFF" d="M299.298,56.89c-0.193,0.019-0.388,0.085-0.585,0.229l-0.102-0.08l0.229,0.178
		c-0.081,0.197-0.007,0.36,0.166,0.462c-0.039,0.097-0.039,0.259,0,0.456l0.222-0.052C299.691,57.433,299.722,57.021,299.298,56.89
		 M300.436,56.125l0.226,0.08l0.11,0.05h0.051h-0.051h0.051L301,56.662l-0.179,0.28c-0.338-0.034-0.582,0.114-0.735,0.505h-0.177
		c0,0.406-0.119,0.786-0.38,1.193l0.1,0.181c-0.237,0.343-0.381,0.784-0.456,1.291c-0.091,0.197-0.18,0.428-0.229,0.688l-0.229-0.05
		l-0.159,0.277c-0.831,0.113-1.34-0.278-1.543-1.115c0.195-0.128,0.335-0.308,0.458-0.535h0.331
		c0.542,0.687,0.938,0.571,1.271-0.378l-0.291-0.079c-0.042-0.458-0.236-0.803-0.626-1.064c0.043-0.237-0.023-0.449-0.227-0.638
		l0.05-0.099c-0.221-0.122-0.481-0.171-0.787-0.178l-0.064-0.639c0.581-0.161,1.233-0.161,1.945,0
		c0.27-0.058,0.601-0.092,1.015-0.099h0.179C300.315,56.205,300.364,56.186,300.436,56.125"/>
</g>
</svg>
