<?xml version="1.0" encoding="utf-8"?>
<!-- Generator: Adobe Illustrator 16.0.0, SVG Export Plug-In . SVG Version: 6.00 Build 0)  -->
<!DOCTYPE svg PUBLIC "-//W3C//DTD SVG 1.1//EN" "http://www.w3.org/Graphics/SVG/1.1/DTD/svg11.dtd">
<svg version="1.1" id="Layer_1" xmlns="http://www.w3.org/2000/svg" xmlns:xlink="http://www.w3.org/1999/xlink" x="0px" y="0px"
	 width="30px" height="30px" viewBox="0 0 30 30" enable-background="new 0 0 30 30" xml:space="preserve">
<g>
	<path fill-rule="evenodd" clip-rule="evenodd" fill="none" stroke="#FFFFFF" stroke-width="0.6469" stroke-miterlimit="10" d="
		M0.645,14.757c0,0,1.691-1.938,4.05-1.938c2.359,0,20.604,0,20.604,0s2.759,0,4.057,1.938c0,0-1.226,2.423-3.82,2.423
		c-2.596,0-20.643,0-20.643,0S2.313,17.181,0.645,14.757z"/>
	<circle fill-rule="evenodd" clip-rule="evenodd" fill="#FFFFFF" cx="23.591" cy="14.942" r="0.413"/>
	<circle fill-rule="evenodd" clip-rule="evenodd" fill="#FFFFFF" cx="4.886" cy="14.957" r="0.413"/>
	<circle fill-rule="evenodd" clip-rule="evenodd" fill="#FFFFFF" cx="25.466" cy="14.942" r="0.413"/>
	<path fill-rule="evenodd" clip-rule="evenodd" fill="none" stroke="#FFFFFF" stroke-width="0.3376" stroke-miterlimit="10" d="
		M21.998,16.023c0,0.064-0.054,0.117-0.118,0.117H7.921c-0.065,0-0.118-0.053-0.118-0.117v-2.045c0-0.065,0.053-0.118,0.118-0.118
		H21.88c0.064,0,0.118,0.053,0.118,0.118V16.023z"/>
	<polygon fill-rule="evenodd" clip-rule="evenodd" fill="#FFFFFF" points="9.09,14.274 9.709,15.778 10.122,15.778 9.527,14.274 	
		"/>
	<polygon fill-rule="evenodd" clip-rule="evenodd" fill="#FFFFFF" points="9.771,14.274 10.39,15.778 10.803,15.778 10.209,14.274 	
		"/>
	<polygon fill-rule="evenodd" clip-rule="evenodd" fill="#FFFFFF" points="10.419,14.274 11.039,15.778 11.451,15.778 
		10.857,14.274 	"/>
	<polygon fill-rule="evenodd" clip-rule="evenodd" fill="#FFFFFF" points="11.065,14.274 11.685,15.778 12.098,15.778 
		11.502,14.274 	"/>
	<polygon fill-rule="evenodd" clip-rule="evenodd" fill="#FFFFFF" points="11.747,14.274 12.365,15.778 12.778,15.778 
		12.184,14.274 	"/>
	<polygon fill-rule="evenodd" clip-rule="evenodd" fill="#FFFFFF" points="12.395,14.274 13.014,15.778 13.426,15.778 
		12.832,14.274 	"/>
	<polygon fill-rule="evenodd" clip-rule="evenodd" fill="#FFFFFF" points="13.04,14.274 13.659,15.778 14.072,15.778 13.478,14.274 
			"/>
	<polygon fill-rule="evenodd" clip-rule="evenodd" fill="#FFFFFF" points="13.722,14.274 14.341,15.778 14.753,15.778 
		14.159,14.274 	"/>
	<polygon fill-rule="evenodd" clip-rule="evenodd" fill="#FFFFFF" points="14.37,14.274 14.99,15.778 15.402,15.778 14.808,14.274 	
		"/>
	<polygon fill-rule="evenodd" clip-rule="evenodd" fill="#FFFFFF" points="15.045,14.274 15.665,15.778 16.077,15.778 
		15.482,14.274 	"/>
	<polygon fill-rule="evenodd" clip-rule="evenodd" fill="#FFFFFF" points="15.727,14.274 16.346,15.778 16.758,15.778 
		16.164,14.274 	"/>
	<polygon fill-rule="evenodd" clip-rule="evenodd" fill="#FFFFFF" points="16.375,14.274 16.994,15.778 17.407,15.778 
		16.813,14.274 	"/>
	<polygon fill-rule="evenodd" clip-rule="evenodd" fill="#FFFFFF" points="17.05,14.274 17.669,15.778 18.081,15.778 17.487,14.274 
			"/>
	<polygon fill-rule="evenodd" clip-rule="evenodd" fill="#FFFFFF" points="17.731,14.274 18.351,15.778 18.763,15.778 
		18.168,14.274 	"/>
	<polygon fill-rule="evenodd" clip-rule="evenodd" fill="#FFFFFF" points="18.38,14.274 18.998,15.778 19.411,15.778 18.816,14.274 
			"/>
	<polygon fill-rule="evenodd" clip-rule="evenodd" fill="#FFFFFF" points="19.033,14.274 19.652,15.778 20.064,15.778 19.47,14.274 
			"/>
	<polygon fill-rule="evenodd" clip-rule="evenodd" fill="#FFFFFF" points="19.682,14.274 20.301,15.778 20.714,15.778 
		20.119,14.274 	"/>
</g>
</svg>
