<?xml version="1.0" encoding="utf-8"?>
<!-- Generator: Adobe Illustrator 16.0.0, SVG Export Plug-In . SVG Version: 6.00 Build 0)  -->
<!DOCTYPE svg PUBLIC "-//W3C//DTD SVG 1.1//EN" "http://www.w3.org/Graphics/SVG/1.1/DTD/svg11.dtd">
<svg version="1.1" id="Layer_1" xmlns="http://www.w3.org/2000/svg" xmlns:xlink="http://www.w3.org/1999/xlink" x="0px" y="0px"
	 width="30px" height="30px" viewBox="0 0 30 30" enable-background="new 0 0 30 30" xml:space="preserve">
<g>
	
		<ellipse fill="none" stroke="#FFFFFF" stroke-width="1.0849" stroke-miterlimit="22.9256" cx="19.197" cy="11.125" rx="7.704" ry="3.59"/>
	<path fill="none" stroke="#FFFFFF" stroke-width="1.0849" stroke-miterlimit="22.9256" d="M11.497,11.41l0.019,6.706
		c0.009,3.037,4.426,4.434,8.031,4.345c3.529-0.089,7.349-1.728,7.351-4.574v-6.469"/>
	<path fill="none" stroke="#FFFFFF" stroke-width="1.0849" stroke-miterlimit="22.9256" d="M11.497,11.41l-7.328-0.039
		c-0.59-0.002-0.964,0.222-0.972,0.616c-0.032,1.953-0.109,3.905-0.097,5.86c0.004,0.672,0.36,1.167,1.23,1.164l7.188-0.02"/>
	
		<line fill="none" stroke="#FFFFFF" stroke-width="0.6944" stroke-miterlimit="22.9256" x1="13.528" y1="13.611" x2="13.542" y2="17.58"/>
	
		<line fill="none" stroke="#FFFFFF" stroke-width="0.6944" stroke-miterlimit="22.9256" x1="15.944" y1="14.701" x2="15.936" y2="16.637"/>
	
		<line fill="none" stroke="#FFFFFF" stroke-width="0.6944" stroke-miterlimit="22.9256" x1="18.067" y1="15.139" x2="18.079" y2="19.109"/>
	
		<line fill="none" stroke="#FFFFFF" stroke-width="0.6944" stroke-miterlimit="22.9256" x1="20.312" y1="15.175" x2="20.302" y2="17.111"/>
	
		<line fill="none" stroke="#FFFFFF" stroke-width="0.6944" stroke-miterlimit="22.9256" x1="22.474" y1="14.691" x2="22.486" y2="18.659"/>
	
		<line fill="none" stroke="#FFFFFF" stroke-width="0.6943" stroke-miterlimit="22.9256" x1="24.648" y1="13.782" x2="24.642" y2="15.718"/>
	
		<ellipse fill="none" stroke="#FFFFFF" stroke-width="0.7546" stroke-miterlimit="22.9256" cx="19.322" cy="11.089" rx="5.085" ry="1.678"/>
</g>
</svg>
