<?xml version="1.0" encoding="utf-8"?>
<!-- Generator: Adobe Illustrator 16.0.0, SVG Export Plug-In . SVG Version: 6.00 Build 0)  -->
<!DOCTYPE svg PUBLIC "-//W3C//DTD SVG 1.1//EN" "http://www.w3.org/Graphics/SVG/1.1/DTD/svg11.dtd">
<svg version="1.1" id="Layer_1" xmlns="http://www.w3.org/2000/svg" xmlns:xlink="http://www.w3.org/1999/xlink" x="0px" y="0px"
	 width="30px" height="30px" viewBox="0 0 30 30" enable-background="new 0 0 30 30" xml:space="preserve">
<g>
	<path fill-rule="evenodd" clip-rule="evenodd" fill="none" stroke="#FFFFFF" stroke-width="0.7446" stroke-miterlimit="10" d="
		M21.467,13.369c0.873-0.005,1.541-0.667,1.541-1.54c0-0.853-0.697-1.558-1.545-1.551c-0.863,0.005-1.539,0.682-1.549,1.549
		C19.906,12.672,20.611,13.373,21.467,13.369L21.467,13.369z M18.953,7.362c0-0.521,0-1.015,0-1.508
		c0-0.353,0.168-0.559,0.445-0.561c0.271-0.001,0.445,0.211,0.445,0.564c0,0.456,0,0.91,0,1.378
		c1.203-0.142,2.291,0.095,3.277,0.748c0.709,0.468,1.262,1.08,1.615,1.853c0.115,0.249,0.252,0.342,0.525,0.331
		c0.533-0.022,0.533-0.007,0.533-0.532c0-0.13,0-0.261,0-0.392c0.006-0.427,0.25-0.706,0.621-0.715
		c0.387-0.01,0.664,0.27,0.664,0.703c0.004,1.428,0.004,2.856,0.004,4.283c0,0.56,0.002,1.12-0.004,1.68
		c0,0.424-0.229,0.682-0.6,0.699c-0.367,0.017-0.652-0.26-0.682-0.667c-0.01-0.167-0.014-0.337-0.002-0.504
		c0.016-0.227-0.111-0.259-0.297-0.256c-0.184,0.004-0.334,0.007-0.334,0.256c0.006,1.447,0.002,2.893,0.002,4.34
		c0,0.232,0.135,0.246,0.313,0.246c1.016-0.004,2.033-0.002,3.051-0.002c0.383,0,0.434,0.053,0.434,0.436c0,1.531,0,3.061,0,4.59
		c0,0.338-0.033,0.375-0.363,0.375c-6.197,0.002-12.393,0.002-18.589,0.002c-2.855,0-5.711,0-8.566-0.002
		c-0.4,0-0.412-0.01-0.412-0.404c0-1.531,0.001-3.061,0.001-4.592c0-0.348,0.012-0.359,0.367-0.359
		c5.674,0,11.347-0.002,17.021,0.008c0.305,0,0.424-0.076,0.465-0.381c0.084-0.664,0.225-1.322,0.307-1.987
		c0.279-2.287-1.262-4.51-3.495-5.06c-0.711-0.175-1.426-0.113-2.138-0.021c-1.376,0.18-2.753,0.358-4.129,0.546
		c-0.433,0.06-0.867,0.13-1.289,0.241c-0.192,0.049-0.394,0.176-0.524,0.327c-0.834,0.967-1.649,1.951-2.471,2.93
		c-0.054,0.063-0.108,0.165-0.173,0.173c-0.36,0.045-0.307,0.3-0.307,0.541c0,0.402,0,0.805,0,1.205
		c0,0.303-0.163,0.492-0.414,0.496c-0.243,0.004-0.427-0.193-0.427-0.486c-0.005-0.494,0-0.988-0.005-1.483
		c0-0.079-0.008-0.204-0.055-0.228c-0.256-0.136-0.222-0.364-0.222-0.586c0-2.92,0-5.841,0-8.763c0-0.449,0.079-0.487,0.512-0.536
		C4.713,6.21,5.174,6.446,5.607,6.932C6.253,7.655,6.974,8.309,7.65,9.006C7.834,9.197,8.024,9.254,8.274,9.21
		c1.11-0.195,2.22-0.386,3.33-0.577c2.018-0.348,4.036-0.696,6.054-1.044C18.08,7.516,18.502,7.442,18.953,7.362z"/>
	
		<line fill-rule="evenodd" clip-rule="evenodd" fill="none" stroke="#FFFFFF" stroke-width="0.7446" stroke-miterlimit="10" x1="2.45" y1="20.975" x2="27.395" y2="20.975"/>
	<path fill-rule="evenodd" clip-rule="evenodd" fill="#FFFFFF" d="M15.754,9.957c0.037,0.35-0.218,0.665-0.569,0.701l-5.567,0.576
		c-0.35,0.037-0.664-0.218-0.7-0.569l0,0C8.881,10.314,9.136,10,9.486,9.964l5.566-0.576C15.404,9.351,15.718,9.606,15.754,9.957
		L15.754,9.957z"/>
	
		<line fill-rule="evenodd" clip-rule="evenodd" fill="none" stroke="#FFFFFF" stroke-width="0.7446" stroke-miterlimit="10" x1="4.87" y1="6.58" x2="4.87" y2="12.599"/>
</g>
</svg>
