<?xml version="1.0" encoding="utf-8"?>
<!-- Generator: Adobe Illustrator 16.0.0, SVG Export Plug-In . SVG Version: 6.00 Build 0)  -->
<!DOCTYPE svg PUBLIC "-//W3C//DTD SVG 1.1//EN" "http://www.w3.org/Graphics/SVG/1.1/DTD/svg11.dtd">
<svg version="1.1" id="Layer_1" xmlns="http://www.w3.org/2000/svg" xmlns:xlink="http://www.w3.org/1999/xlink" x="0px" y="0px"
	 width="40px" height="40px" viewBox="0 0 40 40" enable-background="new 0 0 40 40" xml:space="preserve">
<path fill="#B64851" d="M15.277,19.797c0,0-7.917-4.81-9.443-5.771c-1.528-0.961-3.752-0.688-4.724-3.298
	C0.138,8.119,2.5,6.194,5.833,7.569c3.333,1.374,10.276,6.184,10.276,6.184S16.25,6.057,16.25,3.584c0-2.474,1.25-3.711,4.166-3.573
	c2.917,0.138,2.917,3.161,2.501,7.146c-0.417,3.983-0.695,9.755-0.695,9.755s8.889,4.948,10.833,5.771
	c1.945,0.824,3.334,3.021-0.972,2.474c-4.307-0.551-10.416-1.923-10.416-1.923s-1.808,6.596-1.945,9.616
	c-0.139,3.024,0.278,4.812-0.972,4.812s-3.334-3.159-3.195-6.183C15.694,28.455,15.277,19.797,15.277,19.797z"/>
</svg>
