<?xml version="1.0" encoding="utf-8"?>
<!-- Generator: Adobe Illustrator 16.0.0, SVG Export Plug-In . SVG Version: 6.00 Build 0)  -->
<!DOCTYPE svg PUBLIC "-//W3C//DTD SVG 1.1//EN" "http://www.w3.org/Graphics/SVG/1.1/DTD/svg11.dtd">
<svg version="1.1" id="Layer_1" xmlns="http://www.w3.org/2000/svg" xmlns:xlink="http://www.w3.org/1999/xlink" x="0px" y="0px"
	 width="36px" height="36px" viewBox="0 0 36 36" enable-background="new 0 0 36 36" xml:space="preserve">
<path fill="#FFFFFF" d="M23.25,21h-1.186l-0.42-0.405C23.115,18.885,24,16.665,24,14.25c0-5.385-4.365-9.75-9.75-9.75
	S4.5,8.865,4.5,14.25S8.865,24,14.25,24c2.415,0,4.635-0.885,6.346-2.355L21,22.064v1.186l7.5,7.484l2.234-2.234L23.25,21z
	 M14.25,21c-3.735,0-6.75-3.015-6.75-6.75s3.015-6.75,6.75-6.75S21,10.515,21,14.25S17.985,21,14.25,21z"/>
<path fill="none" d="M0,0h36v36H0V0z"/>
<path fill="#FFFFFF" d="M18,15h-3v3h-1.5v-3h-3v-1.5h3v-3H15v3h3V15z"/>
</svg>
